<svg xmlns="http://www.w3.org/2000/svg" viewBox="0 0 218.95 283.48"><title>body</title><g id="Layer_2" data-name="Layer 2"><g id="Layer_1-2" data-name="Layer 1"><path d="M111.75,283.48c-16.26,0-40.77-1.55-57.77-9.67l-.75-.36a93.91,93.91,0,0,1-14.91-9.06c-6.43-4.84-19.81-14.91-29.09-34.21-16.3-33.87-7.36-71.1-.84-98.28,1.55-6.47,3.29-12.42,5.3-18.21s4-10.91,6.29-16.06a266.3,266.3,0,0,1,15.8-30.25C37.2,65,38.7,62.55,40.23,60.1,40.9,59,56.74,34,66.57,29.93c0,0,2.27-.93,5.21-2,1-.37,1.36-.49,1.72-.61a26.42,26.42,0,0,1,4.86-1.08c.71-.09,1.46-.15,2.24-.22,3.59-.3,7.65-.65,12-3.83,5.58-4.08,8-10.13,9.88-15C104,3.25,105.26.13,107.74,0s3.67,2.79,5.3,6.84c1.93,4.79,4.58,11.35,10.73,16.74,9,7.92,20.2,8.59,23.39,8.61a20.17,20.17,0,0,0,5.12-.53,15.66,15.66,0,0,1,2.91-.39h.27c24.44,0,46.44,70.73,50.61,85,2.2,7.47,3.58,13.19,4.24,15.94l.05.19c5.48,22.66,10.21,42.24,8,68.22-1.51,18.23-4.33,52.16-25.89,71.15-7,6.14-25.43,7.77-62.21,11l-1.6.14C128.54,282.9,121.68,283.48,111.75,283.48Z"/></g></g></svg>