<svg xmlns="http://www.w3.org/2000/svg" viewBox="0 0 218.95 283.48"><title>bodyOutline</title><g id="Layer_2" data-name="Layer 2"><g id="Layer_1-2" data-name="Layer 1"><path d="M111.75,283.48c-16.26,0-40.77-1.55-57.77-9.67l-.75-.36a93.91,93.91,0,0,1-14.91-9.06c-6.43-4.84-19.81-14.91-29.09-34.21-16.3-33.87-7.36-71.1-.84-98.28,1.55-6.47,3.29-12.42,5.3-18.21s4-10.91,6.29-16.06a266.3,266.3,0,0,1,15.8-30.25C37.2,65,38.7,62.55,40.23,60.1,40.9,59,56.74,34,66.57,29.93c0,0,2.27-.93,5.21-2,1-.37,1.36-.49,1.72-.61a26.42,26.42,0,0,1,4.86-1.08c.71-.09,1.46-.15,2.24-.22,3.59-.3,7.65-.65,12-3.83,5.58-4.08,8-10.13,9.88-15C104,3.25,105.26.13,107.74,0s3.67,2.79,5.3,6.84c1.93,4.79,4.58,11.35,10.73,16.74,9,7.92,20.2,8.59,23.39,8.61a20.17,20.17,0,0,0,5.12-.53,15.66,15.66,0,0,1,2.91-.39h.27c24.44,0,46.44,70.73,50.61,85,2.2,7.47,3.58,13.19,4.24,15.94l.05.19c5.48,22.66,10.21,42.24,8,68.22-1.51,18.23-4.33,52.16-25.89,71.15-7,6.14-25.43,7.77-62.21,11l-1.6.14C128.54,282.9,121.68,283.48,111.75,283.48ZM10.13,229.75c9.18,19.08,22.43,29.05,28.79,33.85a93.18,93.18,0,0,0,14.75,8.95l.74.36c14.17,6.76,33.58,8.85,47.37,9.4a233.84,233.84,0,0,0,26.85-.42l1.59-.14c36.56-3.23,54.91-4.85,61.64-10.77,21.26-18.73,24-52.4,25.56-70.48,2.14-25.83-2.57-45.33-8-67.9l0-.2c-.66-2.74-2-8.44-4.23-15.89C201,102.4,179.18,32.27,155.47,32.27h-.26a13.85,13.85,0,0,0-2.73.37,20.52,20.52,0,0,1-5.32.55c-3.29,0-14.74-.71-24-8.86-6.33-5.54-9-12.23-11-17.12C110.63,3.55,109.58.89,107.79,1s-3,3-4.38,6.56C101.55,12.27,99,18.72,93.19,23c-4.58,3.35-9,3.72-12.5,4-.77.06-1.5.12-2.21.21a26.21,26.21,0,0,0-4.67,1c-.36.12-.71.24-1.68.6-2.92,1.08-5.16,2-5.18,2C57.41,34.8,41.24,60.38,41.08,60.63c-1.53,2.44-3,4.88-4.44,7.27A263.47,263.47,0,0,0,20.9,98c-2.25,5.13-4.3,10.36-6.26,16a187.12,187.12,0,0,0-5.28,18.12c-6.49,27-15.37,64.05.77,97.61Z"/></g></g></svg>