<svg xmlns="http://www.w3.org/2000/svg" viewBox="0 0 136.47 137.61"><title>earL2</title><g id="Layer_2" data-name="Layer 2"><g id="Layer_1-2" data-name="Layer 1"><path d="M78.15,137.61c-30.19,0-47.78-2.59-61-16.54C-4.22,98.44,0,65.93,1.06,59.65,3.41,45.71,11.13,20.37,36.32,7.29c2.89-1.5,29-14.29,55.44-2C117.26,17.1,125.63,43.73,128,54.62c1.78,8,1.41,13.23,1,18.73a76.73,76.73,0,0,0,2,26.27c1,4.32,2.05,7.92,3,11.1,2.22,7.51,3.69,12.48.95,17.26-4.16,7.28-14.72,8.93-30.42,9.25C94.8,137.43,86,137.61,78.15,137.61ZM67.31,1A70.72,70.72,0,0,0,36.78,8.18C12,21.06,4.37,46.06,2,59.81,1,66-3.17,98.09,17.91,120.39c16.33,17.26,39.82,16.79,86.63,15.84,15.35-.31,25.65-1.88,29.58-8.75,2.52-4.41,1.18-9-1.05-16.48-.94-3.19-2-6.8-3-11.16a78.64,78.64,0,0,1-2-26.56c.38-5.43.75-10.56-1-18.44-2.38-10.75-10.63-37-35.72-48.65A56.59,56.59,0,0,0,67.31,1Z"/><path d="M134.55,127.73c-4.1,7.17-14.88,8.69-30,9-47,1-70.52,1.43-87-16C-4.32,97.59.82,64,1.55,59.73c1-6,6.27-37.08,35-52,2.58-1.34,28.52-14.28,55-2,28,13,34.93,44.17,36,49,3.85,17.38-2.44,21.28,3,45C133.94,114.5,138.27,121.22,134.55,127.73Z"/><path d="M78.15,137.61c-30.2,0-47.78-2.59-61-16.53C-4.25,98.39,0,65.93,1.06,59.65,3.42,45.7,11.14,20.36,36.32,7.29c2.89-1.5,29-14.29,55.44-2C117.26,17.1,125.62,43.72,128,54.62c1.78,8,1.41,13.23,1,18.74a77,77,0,0,0,2,26.26c1,4.32,2.05,7.92,3,11.09,2.22,7.52,3.69,12.49.95,17.27h0c-4.15,7.27-14.72,8.93-30.42,9.25C94.8,137.43,86,137.61,78.15,137.61ZM67.31,1A70.72,70.72,0,0,0,36.78,8.18C12,21.05,4.38,46.05,2.05,59.81,1,66-3.2,98.05,17.91,120.39c16.33,17.26,39.81,16.79,86.59,15.84,15.39-.31,25.69-1.89,29.62-8.75h0c2.52-4.41,1.18-9-1.05-16.48-.94-3.19-2-6.81-3-11.16a78.85,78.85,0,0,1-2-26.55c.39-5.43.75-10.56-1-18.45-2.38-10.75-10.63-37-35.72-48.65A56.59,56.59,0,0,0,67.31,1Z"/></g></g></svg>