<svg xmlns="http://www.w3.org/2000/svg" viewBox="0 0 108.56 156.98"><title>earL3outline</title><g id="Layer_2" data-name="Layer 2"><g id="Layer_1-2" data-name="Layer 1"><path d="M57.88,157a21.75,21.75,0,0,1-6.53-1h0c-9.58-3-25.84-29.48-38.31-62.3C1.39,63.06-.09,49.63,0,40.53.16,24.37,4.11,1.12,12.44,0c3.81-.5,6.27,3.82,11.14,12.43A271.77,271.77,0,0,0,41.91,41.24l.08.11c8.79,12,16.39,22.38,28.84,32.8,7.8,6.54,23.61,19.87,27.86,22.3,5,2.86,8,4.59,9.29,8.94,1.32,4.5.37,10.24-2.76,16.62a67.12,67.12,0,0,1-13.17,17.62C83.29,148.23,69.9,157,57.88,157ZM13,1a3,3,0,0,0-.42,0C5.26,2,1.15,24.58,1,40.54c-.09,9,1.38,22.32,13,52.82,12.36,32.51,28.56,58.83,37.68,61.7h0c13,4.09,29.51-6.14,39.7-16.14C103.16,127.33,109.46,114,107,105.68c-1.16-4-3.88-5.53-8.83-8.36-4.28-2.45-20.14-15.81-28-22.4C57.64,64.42,50,54,41.18,41.94l-.08-.11A272.31,272.31,0,0,1,22.71,13C18.27,5.12,15.94,1,13,1Z"/></g></g></svg>