<svg xmlns="http://www.w3.org/2000/svg" viewBox="0 0 71.68 124"><title>earL1outline</title><g id="Layer_2" data-name="Layer 2"><g id="Layer_1-2" data-name="Layer 1"><path d="M63.4,124c-5.33,0-13.19-3.11-21.87-8.81A109.62,109.62,0,0,1,12.18,86.43C3.1,73.1-1,59.4.22,46.82,2,29,14.49,12.08,25.9,4.62,32.23.49,38.33-.94,43.07.61c12.63,4.11,19,29.17,15.15,59.61,14,38,17,58.6,9.35,62.87h0A8.63,8.63,0,0,1,63.4,124ZM39.06,1C35.3,1,31,2.52,26.45,5.46,15.23,12.79,3,29.38,1.21,46.92c-2.6,26.17,19.36,53.3,40.87,67.43,10.89,7.16,20.71,10.25,25,7.86,7.07-3.93,3.76-24.71-9.85-61.76l0-.11v-.12C61,30.68,54.76,5.46,42.76,1.56A11.75,11.75,0,0,0,39.06,1Z"/></g></g></svg>