<svg xmlns="http://www.w3.org/2000/svg" viewBox="0 0 106.53 158.11"><title>earR3outline</title><g id="Layer_2" data-name="Layer 2"><g id="Layer_1-2" data-name="Layer 1"><path d="M51.43,158.11c-11.79,0-25-8.08-33.87-16.16A67.16,67.16,0,0,1,3.78,124.8c-3.35-6.27-4.5-12-3.34-16.52S14.52,92.06,19.42,89A112.14,112.14,0,0,0,36.85,76.11C48.93,65.25,56.18,54.6,64.57,42.28A271.62,271.62,0,0,0,81.9,12.85C86.48,4.07,88.79-.35,92.63,0c8.34.78,13.11,23.87,13.83,40,.4,9.13-.62,22.64-11.18,53.6l-.48-.16.48.16-.48-.16.46.21c-11.32,33.2-27,59.86-36.46,63.2A22,22,0,0,1,51.43,158.11ZM92.22,1c-3,0-5.2,4.2-9.43,12.31A270.75,270.75,0,0,1,65.44,42.78C57,55.22,49.69,65.91,37.52,76.85A114.54,114.54,0,0,1,19.69,90.28c-5,3-17.25,14.25-18.28,18.25C-.74,116.91,6,130.05,18.23,141.21c10.54,9.64,27.4,19.29,40.24,14.75,9-3.18,24.63-29.69,35.84-62.58l0,0c10.51-30.81,11.52-44.2,11.13-53.24C104.75,24.15,99.86,1.7,92.54,1Z"/></g></g></svg>