<svg xmlns="http://www.w3.org/2000/svg" viewBox="0 0 73.12 125.51"><title>earR1</title><g id="Layer_2" data-name="Layer 2"><g id="Layer_1-2" data-name="Layer 1"><path d="M4.57,124.1c-6.13-3.39-7-18.52,9.26-63.16-4.36-31.35,2.31-56,14.63-59.88,15.06-4.72,41,20.8,43.89,46.76C77.13,90.81,18.28,131.67,4.57,124.1Z"/><path d="M8.79,125.51a9.17,9.17,0,0,1-4.46-1c-7.93-4.37-5-25.19,9-63.64C9.05,30,15.35,4.65,28.31.58c4.9-1.53,11.23,0,17.82,4.29,11.77,7.68,24.72,24.88,26.72,42.9,2.93,26.42-18.22,53.24-40.49,68.1C23,122.11,14.53,125.51,8.79,125.51ZM32.31,1a12.35,12.35,0,0,0-3.7.54C16.3,5.4,10.16,30.91,14.33,60.88l0,.12,0,.12C.67,98.57-2.52,119.62,4.82,123.66h0c4.67,2.58,15.26-.8,27-8.62,22-14.69,42.94-41.16,40.05-67.16-2-17.71-14.7-34.62-26.26-42.17C40.83,2.61,36.25,1,32.31,1Z"/></g></g></svg>