<svg xmlns="http://www.w3.org/2000/svg" viewBox="0 0 136.06 140.95"><title>earR2</title><g id="Layer_2" data-name="Layer 2"><g id="Layer_1-2" data-name="Layer 1"><path d="M129,96.25c-2.44,6.27-13.63,35-39.32,43.13-7.4,2.35-8.14.5-46.77-2.43-30.43-2.31-34.25-1.48-38.48-5.85-8.9-9.2,0-21.26,0-57.21,0-30.83-6.47-36.72-.08-48.7C15.82,3.74,48.1,1.16,53,.76c27-2.16,64.19,9.33,77.64,40.48C141.05,65.24,132,88.62,129,96.25Z"/><path d="M83.3,141c-2.46,0-5.68-.33-11.15-.89-6.05-.62-15.2-1.55-29.24-2.62-6.37-.48-11.64-.83-15.87-1.11-16.1-1.07-19.45-1.29-22.93-4.89-5.4-5.58-4.49-12.07-2.83-23.86A226.7,226.7,0,0,0,4,73.89,193.24,193.24,0,0,0,2,46.11c-1.2-9-1.86-14,1.94-21.16C14.36,5.4,41.71,1.17,53,.26,82.06-2.06,118.25,11.19,131.14,41c10.5,24.31,1.37,47.7-1.63,55.39-8.84,22.7-22.91,38.12-39.64,43.42A19.37,19.37,0,0,1,83.3,141ZM59.61,1q-3.31,0-6.53.25C42,2.16,15,6.31,4.81,25.42,1.17,32.26,1.81,37.13,3,46A193.11,193.11,0,0,1,5,73.89a226.8,226.8,0,0,1-2.68,33.83c-1.61,11.48-2.5,17.8,2.56,23,3.21,3.31,6.12,3.51,22.28,4.58,4.23.28,9.5.63,15.88,1.12,14,1.06,23.21,2,29.26,2.62,10.77,1.1,12.71,1.29,17.32-.17,16.43-5.21,30.28-20.42,39-42.84h0c3-7.59,12-30.69,1.64-54.63C118.47,14.22,87,1,59.61,1Z"/></g></g></svg>