<svg xmlns="http://www.w3.org/2000/svg" viewBox="0 0 71.55 22.31"><defs><style>.cls-1{fill:none;stroke:#000;stroke-miterlimit:10;}.cls-2{fill:#fff;}</style></defs><title>eye1</title><g id="Layer_2" data-name="Layer 2"><g id="Layer_1-2" data-name="Layer 1"><path class="cls-1" d="M10.25,2.43C7.48,3.22,4.84,5.89,5,8.83A6.25,6.25,0,0,0,7.29,13c2.25,2,6.42,3.48,10,1.79,1.93-.9,4-2.84,4.11-5.21C21.63,5.25,15.18,1,10.25,2.43Zm0,6.7c-.6.52-1.29.07-1.67-.55A2.65,2.65,0,0,1,8.19,7.3a2.28,2.28,0,0,1,.87-2c.82-.43,1.9.87,1.86,2.2A2.26,2.26,0,0,1,10.24,9.13Zm8.62,2.7a4.8,4.8,0,0,1-5.06-.9,3.05,3.05,0,0,1-1.16-2.09,3.5,3.5,0,0,1,2.65-3.22C17.78,4.91,21,7,20.93,9.21A3.37,3.37,0,0,1,18.86,11.83Z"/><path class="cls-2" d="M8.68.93C4.37,2.19.28,6.45.51,11.14.69,14.63,3.18,17,4.09,17.79,7.57,21,14,23.34,19.65,20.64c3-1.44,6.22-4.53,6.38-8.31C26.33,5.43,16.33-1.31,8.68.93Zm8.65,13.86c-3.62,1.69-7.79.24-10-1.79A6.25,6.25,0,0,1,5,8.83c-.14-2.94,2.5-5.61,5.27-6.4C15.18,1,21.63,5.25,21.44,9.58,21.34,12,19.26,13.89,17.33,14.79Z"/><path d="M14.36,22.31A16.11,16.11,0,0,1,3.75,18.15c-.88-.81-3.55-3.27-3.74-7C-.24,6.09,4.15,1.73,8.54.45h0C12.6-.74,17.77.48,21.7,3.57c3.2,2.51,5,5.71,4.83,8.78-.17,3.9-3.47,7.2-6.66,8.74A12.66,12.66,0,0,1,14.36,22.31ZM11.82,1a10.51,10.51,0,0,0-3,.41h0C4.89,2.56.79,6.59,1,11.11c.17,3.31,2.53,5.49,3.42,6.31,3.51,3.27,9.8,5.27,15,2.77,2.93-1.41,5.95-4.4,6.1-7.88.12-2.75-1.5-5.65-4.44-7.95A15.42,15.42,0,0,0,11.82,1Zm2.06,15A10.73,10.73,0,0,1,7,13.37,6.8,6.8,0,0,1,4.48,8.85C4.32,5.58,7.22,2.77,10.11,2A10.26,10.26,0,0,1,18.89,4c2,1.6,3.13,3.62,3.05,5.56-.12,2.7-2.44,4.73-4.4,5.64A8.59,8.59,0,0,1,13.88,16ZM12.29,2.65a7,7,0,0,0-1.9.26c-2.46.7-5,3.15-4.91,5.89a5.74,5.74,0,0,0,2.14,3.82c2.23,2,6.21,3.25,9.5,1.71h0c1.84-.85,3.73-2.66,3.82-4.77a6,6,0,0,0-2.67-4.73A9.92,9.92,0,0,0,12.29,2.65Z"/><path class="cls-1" d="M10.25,2.43C7.48,3.22,4.84,5.89,5,8.83A6.25,6.25,0,0,0,7.29,13c2.25,2,6.42,3.48,10,1.79,1.93-.9,4-2.84,4.11-5.21C21.63,5.25,15.18,1,10.25,2.43Zm0,6.7c-.6.52-1.29.07-1.67-.55A2.65,2.65,0,0,1,8.19,7.3a2.28,2.28,0,0,1,.87-2c.82-.43,1.9.87,1.86,2.2A2.26,2.26,0,0,1,10.24,9.13Zm8.62,2.7a4.8,4.8,0,0,1-5.06-.9,3.05,3.05,0,0,1-1.16-2.09,3.5,3.5,0,0,1,2.65-3.22C17.78,4.91,21,7,20.93,9.21A3.37,3.37,0,0,1,18.86,11.83Z"/><path d="M20.93,9.21a3.37,3.37,0,0,1-2.07,2.62,4.8,4.8,0,0,1-5.06-.9,3.05,3.05,0,0,1-1.16-2.09,3.5,3.5,0,0,1,2.65-3.22C17.78,4.91,21,7,20.93,9.21Z"/><path d="M17.11,12.71a5.62,5.62,0,0,1-3.65-1.41,3.46,3.46,0,0,1-1.32-2.44,4,4,0,0,1,3-3.72,5.45,5.45,0,0,1,4.66,1.1,3.74,3.74,0,0,1,1.61,3h0a3.84,3.84,0,0,1-2.36,3A4.6,4.6,0,0,1,17.11,12.71ZM16.33,6a3.26,3.26,0,0,0-.9.12,3,3,0,0,0-2.29,2.71,2.53,2.53,0,0,0,1,1.74,4.3,4.3,0,0,0,4.52.82,2.9,2.9,0,0,0,1.78-2.18h0A2.78,2.78,0,0,0,19.2,7,4.75,4.75,0,0,0,16.33,6Z"/><path class="cls-2" d="M10.92,7.52a2.26,2.26,0,0,1-.68,1.61c-.6.52-1.29.07-1.67-.55A2.65,2.65,0,0,1,8.19,7.3a2.28,2.28,0,0,1,.87-2C9.88,4.89,11,6.19,10.92,7.52Z"/><path d="M9.68,9.85H9.47a2,2,0,0,1-1.33-1,3.17,3.17,0,0,1-.45-1.53A2.77,2.77,0,0,1,8.82,4.88,1.32,1.32,0,0,1,10.17,5a3.06,3.06,0,0,1,1.25,2.56,2.74,2.74,0,0,1-.85,2A1.31,1.31,0,0,1,9.68,9.85ZM9.4,5.73a.21.21,0,0,0-.11,0,1.82,1.82,0,0,0-.6,1.52,2.16,2.16,0,0,0,.3,1,1.1,1.1,0,0,0,.63.54.33.33,0,0,0,.29-.1,1.79,1.79,0,0,0,.51-1.24h0a2.05,2.05,0,0,0-.78-1.68A.47.47,0,0,0,9.4,5.73Z"/><path class="cls-1" d="M61.61,2.54C56.73,1,50.13,5,50.16,9.28c0,2.37,2,4.39,3.93,5.36,3.55,1.82,7.77.53,10.09-1.42a6.21,6.21,0,0,0,2.46-4.08C66.9,6.2,64.35,3.43,61.61,2.54ZM55.06,9.75c-.39.61-1.1,1-1.68.49a2.28,2.28,0,0,1-.63-1.63c0-1.33,1.14-2.59,1.94-2.13a2.27,2.27,0,0,1,.8,2A2.44,2.44,0,0,1,55.06,9.75Zm9.69,1.17a4.83,4.83,0,0,1-5.09.71,3.36,3.36,0,0,1-2-2.7c0-2.18,3.31-4.18,5.76-3.38A3.51,3.51,0,0,1,66,8.86,3.15,3.15,0,0,1,64.75,10.92Z"/><path class="cls-2" d="M63.24,1.1C55.67-1.41,45.43,5,45.48,11.86c0,3.79,3.13,7,6.07,8.54,5.51,2.91,12.06.83,15.66-2.28.94-.81,3.51-3,3.81-6.51C71.43,6.93,67.49,2.52,63.24,1.1Zm3.4,8a6.21,6.21,0,0,1-2.46,4.08c-2.32,1.95-6.54,3.24-10.09,1.42-1.9-1-3.91-3-3.93-5.36C50.13,5,56.73,1,61.61,2.54,64.35,3.43,66.9,6.2,66.64,9.14Z"/><path d="M57.3,22.27a12.7,12.7,0,0,1-6-1.43C48.41,19.31,45,16,45,11.86c0-3.07,1.85-6.2,5.13-8.58,4-2.95,9.27-4,13.29-2.66h0c4.34,1.45,8.56,6,8.12,11-.32,3.69-3,6-4,6.85A16.22,16.22,0,0,1,57.3,22.27ZM59.66,1.05a15.52,15.52,0,0,0-9,3c-3,2.19-4.74,5-4.72,7.76,0,3.5,2.93,6.59,5.8,8.1,5.11,2.7,11.46.93,15.1-2.21.92-.79,3.36-2.89,3.64-6.18.4-4.5-3.55-8.69-7.44-10h0A10.93,10.93,0,0,0,59.66,1.05ZM57.8,16a8.6,8.6,0,0,1-3.94-.92c-2.07-1.06-4.18-3.26-4.2-5.8A7,7,0,0,1,52.9,3.85a10.27,10.27,0,0,1,8.86-1.79c2.87.93,5.67,3.85,5.38,7.12A6.64,6.64,0,0,1,64.5,13.6,10.77,10.77,0,0,1,57.8,16ZM59.28,2.69a10,10,0,0,0-5.79,2,6,6,0,0,0-2.83,4.61c0,2.12,1.85,4,3.66,4.92,3.23,1.66,7.24.57,9.54-1.36a5.69,5.69,0,0,0,2.28-3.74h0C66.38,6.36,63.9,3.81,61.46,3A7.1,7.1,0,0,0,59.28,2.69Z"/><path class="cls-1" d="M61.61,2.54C56.73,1,50.13,5,50.16,9.28c0,2.37,2,4.39,3.93,5.36,3.55,1.82,7.77.53,10.09-1.42a6.21,6.21,0,0,0,2.46-4.08C66.9,6.2,64.35,3.43,61.61,2.54ZM55.06,9.75c-.39.61-1.1,1-1.68.49a2.28,2.28,0,0,1-.63-1.63c0-1.33,1.14-2.59,1.94-2.13a2.27,2.27,0,0,1,.8,2A2.44,2.44,0,0,1,55.06,9.75Zm9.69,1.17a4.83,4.83,0,0,1-5.09.71,3.36,3.36,0,0,1-2-2.7c0-2.18,3.31-4.18,5.76-3.38A3.51,3.51,0,0,1,66,8.86,3.15,3.15,0,0,1,64.75,10.92Z"/><path d="M66,8.86a3.15,3.15,0,0,1-1.24,2.06,4.83,4.83,0,0,1-5.09.71,3.36,3.36,0,0,1-2-2.7c0-2.18,3.31-4.18,5.76-3.38A3.51,3.51,0,0,1,66,8.86Z"/><path d="M61.55,12.57a4.64,4.64,0,0,1-2.12-.5,3.84,3.84,0,0,1-2.24-3.14A3.75,3.75,0,0,1,58.91,6a5.45,5.45,0,0,1,4.7-.93A4,4,0,0,1,66.49,8.9h0a3.67,3.67,0,0,1-1.42,2.4A5.66,5.66,0,0,1,61.55,12.57Zm.71-6.7a4.81,4.81,0,0,0-2.76.94,2.77,2.77,0,0,0-1.31,2.11,2.86,2.86,0,0,0,1.7,2.26,4.32,4.32,0,0,0,4.54-.65,2.64,2.64,0,0,0,1.06-1.72A3,3,0,0,0,63.3,6,3.49,3.49,0,0,0,62.26,5.87Z"/><path class="cls-2" d="M55.49,8.48a2.44,2.44,0,0,1-.43,1.27c-.39.61-1.1,1-1.68.49a2.28,2.28,0,0,1-.63-1.63c0-1.33,1.14-2.59,1.94-2.13A2.27,2.27,0,0,1,55.49,8.48Z"/><path d="M54,11A1.31,1.31,0,0,1,53,10.6a2.8,2.8,0,0,1-.79-2,3.09,3.09,0,0,1,1.36-2.52,1.32,1.32,0,0,1,1.33,0A2.75,2.75,0,0,1,56,8.51,2.92,2.92,0,0,1,55.47,10a2,2,0,0,1-1.34,1Zm.37-4.11A.53.53,0,0,0,54.1,7a2.08,2.08,0,0,0-.85,1.66,1.79,1.79,0,0,0,.47,1.26A.31.31,0,0,0,54,10a1,1,0,0,0,.63-.5,2,2,0,0,0,.35-1h0a1.84,1.84,0,0,0-.55-1.53A.21.21,0,0,0,54.33,6.88Z"/></g></g></svg>