<svg xmlns="http://www.w3.org/2000/svg" viewBox="0 0 71.5 14.5"><defs><style>.cls-1,.cls-3{fill:#fff;}.cls-1,.cls-4,.cls-5{stroke:#000;stroke-miterlimit:10;}.cls-2,.cls-4{fill:none;}</style></defs><title>eye2</title><g id="Layer_2" data-name="Layer 2"><g id="Layer_1-2" data-name="Layer 1"><path class="cls-1" d="M25.37,7.68c-.08-.08-.26-.24-.47-.46C23.35,5.63,23.51,5,22.31,3.83A9.51,9.51,0,0,0,18,1.71a21.9,21.9,0,0,0-6.74-.46l-.61,0C4.38,1.62,1.25,1.82.69,3,0,4.47,1.49,6.6,2.84,8.49A12.85,12.85,0,0,0,7.6,12.72,14.59,14.59,0,0,0,15,14a23.9,23.9,0,0,0,8.22-1.69c1.22-.42,4.44-1.53,4.33-2.54C27.46,9.43,27.1,9.27,25.37,7.68ZM21,7.22a5,5,0,0,1-1.72,3c-2.45,2-6.05.72-6.92.41C10.88,10.09,8.62,9.31,8,7.22A4.94,4.94,0,0,1,10.2,2.13c1.74-1.18,3.69-.8,5.62-.42,1.54.3,3.23.63,4.32,2.12A4.76,4.76,0,0,1,21,7.22Z"/><path class="cls-2" d="M20.14,3.83C19.05,2.34,17.36,2,15.82,1.71c-1.93-.38-3.88-.76-5.62.42A4.94,4.94,0,0,0,8,7.22c.59,2.09,2.85,2.87,4.33,3.38.87.31,4.47,1.56,6.92-.41a5,5,0,0,0,1.72-3A4.76,4.76,0,0,0,20.14,3.83ZM16.92,8.18a3.28,3.28,0,0,1-3.48,0,3.2,3.2,0,0,1-1.5-1.71.46.46,0,0,1,0-.09,3.11,3.11,0,0,1,0-2.18A2.82,2.82,0,0,1,13.23,3a3.68,3.68,0,0,1,3.19-.49,3.22,3.22,0,0,1,2,2.85A3.5,3.5,0,0,1,16.92,8.18Zm-3.19-5a1.32,1.32,0,0,0-1.42.88A1,1,0,0,0,13,5.23,1.4,1.4,0,0,0,14.44,5,1.13,1.13,0,0,0,13.73,3.2Z"/><path class="cls-2" d="M15.88,11.64A11.26,11.26,0,0,1,12.24,11c-1.56-.54-3.92-1.36-4.56-3.64A5.26,5.26,0,0,1,10,1.84C11.85.57,13.9,1,15.88,1.35c1.59.32,3.38.67,4.56,2.26h0a5.21,5.21,0,0,1,.93,3.66,5.44,5.44,0,0,1-1.86,3.2A5.63,5.63,0,0,1,15.88,11.64ZM13,1.7a4.4,4.4,0,0,0-2.57.73,4.59,4.59,0,0,0-2,4.69c.53,1.91,2.67,2.65,4.09,3.14,3.53,1.23,5.52.49,6.57-.35a4.63,4.63,0,0,0,1.59-2.75A4.37,4.37,0,0,0,19.85,4h0a4.85,4.85,0,0,0-3-1.73,3.55,3.55,0,0,1,1.89,3,3.9,3.9,0,0,1-1.65,3.16h0a3.63,3.63,0,0,1-3.88,0,3.63,3.63,0,0,1-1.66-1.9l0-.1a3.43,3.43,0,0,1,0-2.44A3.15,3.15,0,0,1,13,2.67a5,5,0,0,1,2.09-.73A12.41,12.41,0,0,0,13,1.7ZM12.12,5a2.83,2.83,0,0,0,.14,1.3l0,.08a2.93,2.93,0,0,0,1.34,1.53,2.89,2.89,0,0,0,3.08,0,3.15,3.15,0,0,0,1.35-2.54,2.72,2.72,0,0,0-4-2.41,1.62,1.62,0,0,1,.85.94,1.29,1.29,0,0,1-.24,1.31,1.81,1.81,0,0,1-1.81.39A1.45,1.45,0,0,1,12.12,5Zm1.44-1.41a1,1,0,0,0-.89.61.64.64,0,0,0,.47.73,1,1,0,0,0,1-.19.58.58,0,0,0,.08-.59.8.8,0,0,0-.58-.55h-.11Z"/><path class="cls-2" d="M20.14,3.83C19.05,2.34,17.36,2,15.82,1.71c-1.93-.38-3.88-.76-5.62.42A4.94,4.94,0,0,0,8,7.22c.59,2.09,2.85,2.87,4.33,3.38.87.31,4.47,1.56,6.92-.41a5,5,0,0,0,1.72-3A4.76,4.76,0,0,0,20.14,3.83ZM16.92,8.18a3.28,3.28,0,0,1-3.48,0,3.2,3.2,0,0,1-1.5-1.71.46.46,0,0,1,0-.09,3.11,3.11,0,0,1,0-2.18A2.82,2.82,0,0,1,13.23,3a3.68,3.68,0,0,1,3.19-.49,3.22,3.22,0,0,1,2,2.85A3.5,3.5,0,0,1,16.92,8.18Zm-3.19-5a1.32,1.32,0,0,0-1.42.88A1,1,0,0,0,13,5.23,1.4,1.4,0,0,0,14.44,5,1.13,1.13,0,0,0,13.73,3.2Z"/><path d="M15.88,11.64A11.26,11.26,0,0,1,12.24,11c-1.56-.54-3.92-1.36-4.56-3.64A5.26,5.26,0,0,1,10,1.84C11.85.57,13.9,1,15.88,1.35c1.59.32,3.38.67,4.56,2.26h0a5.21,5.21,0,0,1,.93,3.66,5.44,5.44,0,0,1-1.86,3.2A5.63,5.63,0,0,1,15.88,11.64ZM13,1.7a4.4,4.4,0,0,0-2.57.73,4.59,4.59,0,0,0-2,4.69c.53,1.91,2.67,2.65,4.09,3.14,3.53,1.23,5.52.49,6.57-.35a4.63,4.63,0,0,0,1.59-2.75A4.37,4.37,0,0,0,19.85,4h0a4.85,4.85,0,0,0-3-1.73,3.55,3.55,0,0,1,1.89,3,3.9,3.9,0,0,1-1.65,3.16h0a3.63,3.63,0,0,1-3.88,0,3.63,3.63,0,0,1-1.66-1.9l0-.1a3.43,3.43,0,0,1,0-2.44A3.15,3.15,0,0,1,13,2.67a5,5,0,0,1,2.09-.73A12.41,12.41,0,0,0,13,1.7ZM12.12,5a2.83,2.83,0,0,0,.14,1.3l0,.08a2.93,2.93,0,0,0,1.34,1.53,2.89,2.89,0,0,0,3.08,0,3.15,3.15,0,0,0,1.35-2.54,2.72,2.72,0,0,0-4-2.41,1.62,1.62,0,0,1,.85.94,1.29,1.29,0,0,1-.24,1.31,1.81,1.81,0,0,1-1.81.39A1.45,1.45,0,0,1,12.12,5Zm1.44-1.41a1,1,0,0,0-.89.61.64.64,0,0,0,.47.73,1,1,0,0,0,1-.19.58.58,0,0,0,.08-.59.8.8,0,0,0-.58-.55h-.11Z"/><path class="cls-3" d="M13.73,3.2a1.32,1.32,0,0,0-1.42.88A1,1,0,0,0,13,5.23,1.4,1.4,0,0,0,14.44,5,1.13,1.13,0,0,0,13.73,3.2Z"/><path d="M13.48,5.67a1.85,1.85,0,0,1-.58-.09A1.36,1.36,0,0,1,12,4a1.66,1.66,0,0,1,1.83-1.15h0a1.55,1.55,0,0,1,1.16,1,1.29,1.29,0,0,1-.24,1.31A1.71,1.71,0,0,1,13.48,5.67Zm.08-2.12a1,1,0,0,0-.89.61.64.64,0,0,0,.47.73,1,1,0,0,0,1-.19.58.58,0,0,0,.08-.59.8.8,0,0,0-.58-.55h-.11Z"/><path d="M16.42,2.49A3.68,3.68,0,0,0,13.23,3,2.82,2.82,0,0,0,11.94,4.2a3.11,3.11,0,0,0,0,2.18.46.46,0,0,0,0,.09,3.2,3.2,0,0,0,1.5,1.71,3.28,3.28,0,0,0,3.48,0,3.5,3.5,0,0,0,1.5-2.84A3.22,3.22,0,0,0,16.42,2.49ZM14.44,5A1.4,1.4,0,0,1,13,5.23a1,1,0,0,1-.71-1.15,1.32,1.32,0,0,1,1.42-.88A1.13,1.13,0,0,1,14.44,5Zm2.24,1A1.46,1.46,0,0,1,15,5.1a1,1,0,0,1,0-.3,3.17,3.17,0,0,1,.48-1.39A2.08,2.08,0,0,1,16.68,3c.49.11.82.77.87,1.27A1.57,1.57,0,0,1,16.68,5.94Z"/><path d="M15.29,9.06a4.13,4.13,0,0,1-2-.57,3.63,3.63,0,0,1-1.66-1.9l0-.1a3.43,3.43,0,0,1,0-2.44A3.15,3.15,0,0,1,13,2.67a4.06,4.06,0,0,1,3.52-.52h0a3.57,3.57,0,0,1,2.23,3.17,3.9,3.9,0,0,1-1.65,3.16A3.11,3.11,0,0,1,15.29,9.06ZM12.12,5a2.83,2.83,0,0,0,.14,1.3l0,.08a2.93,2.93,0,0,0,1.34,1.53,2.89,2.89,0,0,0,3.08,0,3.14,3.14,0,0,0,1.35-2.54,2.68,2.68,0,0,0-.13-.75A1.77,1.77,0,0,1,16.8,6.29h0a1.86,1.86,0,0,1-2.18-1,1.81,1.81,0,0,1-1.72.31A1.45,1.45,0,0,1,12.12,5Zm3.54-1.3a2.74,2.74,0,0,0-.39,1.14.58.58,0,0,0,0,.19,1,1,0,0,0,.52.53,1,1,0,0,0,.75.08c.6-.2.65-1,.61-1.31s-.29-.89-.58-1A1.73,1.73,0,0,0,15.66,3.66Zm-2.1-.11a1,1,0,0,0-.89.61.64.64,0,0,0,.47.73,1,1,0,0,0,1-.19h0a.58.58,0,0,0,.08-.59.8.8,0,0,0-.58-.55Zm.54-.61a1.56,1.56,0,0,1,.75.71,3.39,3.39,0,0,1,.23-.44l.09-.1a3.61,3.61,0,0,1,.76-.39A3,3,0,0,0,14.1,2.94Z"/><path class="cls-3" d="M16.68,5.94A1.46,1.46,0,0,1,15,5.1a1,1,0,0,1,0-.3,3.17,3.17,0,0,1,.48-1.39A2.08,2.08,0,0,1,16.68,3c.49.11.82.77.87,1.27A1.57,1.57,0,0,1,16.68,5.94Z"/><path d="M16.3,6.37a1.78,1.78,0,0,1-.82-.21,1.69,1.69,0,0,1-.88-1,1.4,1.4,0,0,1-.06-.41,3.51,3.51,0,0,1,.54-1.59l.09-.1a2.42,2.42,0,0,1,1.59-.48,1.77,1.77,0,0,1,1.15,1.59A1.88,1.88,0,0,1,16.8,6.29h0A1.69,1.69,0,0,1,16.3,6.37Zm-.64-2.71a2.74,2.74,0,0,0-.39,1.14.58.58,0,0,0,0,.19,1,1,0,0,0,.52.53,1,1,0,0,0,.75.08c.6-.2.65-1,.61-1.31s-.29-.89-.58-1A1.73,1.73,0,0,0,15.66,3.66Z"/><path class="cls-3" d="M14.44,5A1.4,1.4,0,0,1,13,5.23a1,1,0,0,1-.71-1.15,1.32,1.32,0,0,1,1.42-.88A1.13,1.13,0,0,1,14.44,5Z"/><path d="M13.48,5.67a1.85,1.85,0,0,1-.58-.09A1.36,1.36,0,0,1,12,4a1.66,1.66,0,0,1,1.83-1.15,1.55,1.55,0,0,1,1.16,1,1.29,1.29,0,0,1-.24,1.31h0A1.71,1.71,0,0,1,13.48,5.67Zm.08-2.12a1,1,0,0,0-.89.61.64.64,0,0,0,.47.73,1,1,0,0,0,1-.19h0a.58.58,0,0,0,.08-.59.8.8,0,0,0-.58-.55Z"/><path class="cls-4" d="M62.26,1.56C60.7.24,58.88.53,57.07.82c-1.44.23-3,.47-4.12,1.94a5.5,5.5,0,0,0-1,3.45,5.44,5.44,0,0,0,1.46,3.15c2.17,2.16,5.57,1.08,6.39.82C61.22,9.73,63.35,9,64,6.92A5.38,5.38,0,0,0,62.26,1.56Zm-1.8,4.27,0,.11A3.12,3.12,0,0,1,59,7.62a2.8,2.8,0,0,1-3.23-.2,3.77,3.77,0,0,1-1.24-3,3.25,3.25,0,0,1,2-2.82,3.18,3.18,0,0,1,2.94.68,2.75,2.75,0,0,1,1.13,1.32A3.52,3.52,0,0,1,60.46,5.83Z"/><path class="cls-3" d="M71,3c-.46-1.23-3.36-1.6-9.13-2.28L61.34.6a18.25,18.25,0,0,0-6.28.1,8.19,8.19,0,0,0-4.11,2C49.77,3.76,49.89,4.44,48.38,6l-.46.45c-1.68,1.55-2,1.69-2.08,2-.14,1,2.78,2.36,3.89,2.86a20.38,20.38,0,0,0,7.53,2.19,12.25,12.25,0,0,0,6.87-.91A12.24,12.24,0,0,0,68.75,8.5C70.1,6.63,71.62,4.52,71,3Zm-7,4c-.66,2.12-2.79,2.81-4.18,3.26-.82.26-4.22,1.34-6.39-.82A5.44,5.44,0,0,1,52,6.21a5.5,5.5,0,0,1,1-3.45c1.1-1.47,2.68-1.71,4.12-1.94,1.81-.29,3.63-.58,5.19.74A5.38,5.38,0,0,1,64,6.92Z"/><path d="M59.46,14c-.75,0-1.49-.05-2.23-.1a20.86,20.86,0,0,1-7.57-2.19l-.06,0c-2.23-1-4.26-2.1-4.09-3.26.06-.37.25-.53.88-1.09.31-.26.73-.63,1.31-1.17l.45-.44a8.63,8.63,0,0,0,1.38-1.81,6.29,6.29,0,0,1,1.2-1.54A8.56,8.56,0,0,1,55,.34,18.06,18.06,0,0,1,61.34.23h.14l.46.06c6.29.74,8.87,1.1,9.4,2.51h0c.67,1.77-.91,4-2.32,5.91A12.56,12.56,0,0,1,64.27,13,10.52,10.52,0,0,1,59.46,14ZM54,1.37a6.82,6.82,0,0,0-2.78,1.56,5.8,5.8,0,0,0-1.08,1.4,9.61,9.61,0,0,1-1.48,1.94c-.22.23-.39.39-.47.46-.59.55-1,.92-1.32,1.19s-.63.54-.64.62.16.86,3.67,2.44l.07,0a20,20,0,0,0,7.36,2.14c2.2.16,4.29.31,6.71-.88a11.88,11.88,0,0,0,4.49-4c1.3-1.79,2.75-3.81,2.23-5.18h0c-.38-1-3.59-1.43-8.48-2a2.11,2.11,0,0,1,.23.19A5.72,5.72,0,0,1,64.33,7h0c-.71,2.31-3,3.05-4.41,3.49-3.64,1.16-5.66.16-6.71-.89a5.76,5.76,0,0,1-1.56-3.4,5.72,5.72,0,0,1,1-3.71A4.54,4.54,0,0,1,54,1.37ZM59.36,1a14.43,14.43,0,0,0-2.22.23c-1.45.23-2.91.47-3.92,1.82a5,5,0,0,0-.9,3.18,5,5,0,0,0,1.34,2.91c.93.92,2.73,1.79,6.07.73,1.34-.43,3.36-1.08,4-3h0a5,5,0,0,0-1.63-4.94A3.93,3.93,0,0,0,59.36,1Z"/><path class="cls-4" d="M62.26,1.56C60.7.24,58.88.53,57.07.82c-1.44.23-3,.47-4.12,1.94a5.5,5.5,0,0,0-1,3.45,5.44,5.44,0,0,0,1.46,3.15c2.17,2.16,5.57,1.08,6.39.82C61.22,9.73,63.35,9,64,6.92A5.38,5.38,0,0,0,62.26,1.56Zm-1.8,4.27,0,.11A3.12,3.12,0,0,1,59,7.62a2.8,2.8,0,0,1-3.23-.2,3.77,3.77,0,0,1-1.24-3,3.25,3.25,0,0,1,2-2.82,3.18,3.18,0,0,1,2.94.68,2.75,2.75,0,0,1,1.13,1.32A3.52,3.52,0,0,1,60.46,5.83Z"/><path class="cls-5" d="M60.54,3.59a2.75,2.75,0,0,0-1.13-1.32,3.18,3.18,0,0,0-2.94-.68,3.25,3.25,0,0,0-2,2.82,3.77,3.77,0,0,0,1.24,3,2.8,2.8,0,0,0,3.23.2,3.12,3.12,0,0,0,1.47-1.68l0-.11A3.52,3.52,0,0,0,60.54,3.59Zm-2.84.77a1.31,1.31,0,0,1-1.65.77c-.69-.29-.79-1.26-.71-1.79s.4-1.17.86-1.26,1.18.5,1.18.5A3.72,3.72,0,0,1,57.76,4,1.27,1.27,0,0,1,57.7,4.36Zm1.79.24a1.21,1.21,0,0,1-1.3-.38,1.18,1.18,0,0,1,.74-1.75,1.22,1.22,0,0,1,1.27,1A1,1,0,0,1,59.49,4.6Z"/><path class="cls-3" d="M57.76,4a1.27,1.27,0,0,1-.06.39,1.31,1.31,0,0,1-1.65.77c-.69-.29-.79-1.26-.71-1.79s.4-1.17.86-1.26,1.18.5,1.18.5A3.72,3.72,0,0,1,57.76,4Z"/><path d="M56.47,5.59a1.24,1.24,0,0,1-.54-.11A2.05,2.05,0,0,1,55,3.28c.1-.69.52-1.45,1.14-1.57a2.1,2.1,0,0,1,1.45.58l.08.11A4.08,4.08,0,0,1,58.1,4a1.62,1.62,0,0,1-.08.52,1.7,1.7,0,0,1-.87.94A1.51,1.51,0,0,1,56.47,5.59Zm-.15-3.15h-.06c-.27.06-.52.55-.58,1s0,1.18.5,1.39a.82.82,0,0,0,.69,0,1.09,1.09,0,0,0,.52-.52.93.93,0,0,0,0-.26,3.31,3.31,0,0,0-.3-1.14A1.62,1.62,0,0,0,56.32,2.44Z"/><path class="cls-3" d="M60.2,3.45a1,1,0,0,1-.71,1.15,1.21,1.21,0,0,1-1.3-.38,1.18,1.18,0,0,1,.74-1.75A1.22,1.22,0,0,1,60.2,3.45Z"/><path d="M59.13,5a1.51,1.51,0,0,1-1.2-.57,1.4,1.4,0,0,1-.17-1.34,1.5,1.5,0,0,1,1.13-1,1.57,1.57,0,0,1,1.64,1.28,1.41,1.41,0,0,1-1,1.58A1.37,1.37,0,0,1,59.13,5ZM59,2.84H59a.77.77,0,0,0-.57.55.63.63,0,0,0,0,.59.94.94,0,0,0,1,.27.69.69,0,0,0,.48-.74h0A.9.9,0,0,0,59,2.84Z"/></g></g></svg>