<svg xmlns="http://www.w3.org/2000/svg" viewBox="0 -2 71.5 14.5"><defs><style>.cls-1{fill:none;stroke:#000;stroke-miterlimit:10;}</style></defs><title>eye2blink</title><g id="Layer_2" data-name="Layer 2"><g id="Layer_1-2" data-name="Layer 1"><path class="cls-1" d="M.69.35C0,1.84,1.49,4,2.84,5.86A12.85,12.85,0,0,0,7.6,10.09c2.62,1.33,5,1.3,7.35,1.28a24.14,24.14,0,0,0,8.22-1.69c1.22-.42,4.44-1.54,4.33-2.55"/><path class="cls-1" d="M71.34.18C72,2,70.43,4.15,69,6.09a12.64,12.64,0,0,1-4.75,4.24,10.64,10.64,0,0,1-4.81,1c-.75,0-1.49,0-2.23-.1a20.86,20.86,0,0,1-7.57-2.19l-.06,0C47.37,8,45.34,7,45.51,5.79"/></g></g></svg>