<svg xmlns="http://www.w3.org/2000/svg" viewBox="0 -7 72.5 17.53"><defs><style>.cls-1{fill:none;stroke:#000;stroke-miterlimit:10;}</style></defs><title>eye3blink</title><g id="Layer_2" data-name="Layer 2"><g id="Layer_1-2" data-name="Layer 1"><path class="cls-1" d="M.5.86c0,1.53,1.61,2.68,3.62,4.07a21.41,21.41,0,0,0,7.23,3.26c3,.69,6.34,1.49,10.12,0C24.55,7,28.31,4.1,28,1.68"/><path class="cls-1" d="M43,.08c0,.23-.15,1.19,1,2.89a11.37,11.37,0,0,0,5.55,4,19.59,19.59,0,0,0,10.66.51A23,23,0,0,0,68,4.6C70.2,3.3,72,2.21,72,.66"/></g></g></svg>