<svg xmlns="http://www.w3.org/2000/svg" viewBox="0 0 72.5 17.53"><defs><style>.cls-1,.cls-3{fill:#fff;}.cls-1,.cls-2{stroke:#000;stroke-miterlimit:10;}.cls-2{fill:none;}</style></defs><title>eye3</title><g id="Layer_2" data-name="Layer 2"><g id="Layer_1-2" data-name="Layer 1"><path class="cls-1" d="M28,9.67c-.1-.78-1-1.61-2.89-3.26a20.12,20.12,0,0,0-4.34-3.25A14.48,14.48,0,0,0,15,1.53a14.85,14.85,0,0,0-5.78.81A18.69,18.69,0,0,0,5.56,4l-1.31.77c-.08,0-1,.63-1.5,1S.51,7.48.5,8.86c0,1.53,1.61,2.68,3.62,4.07a21.41,21.41,0,0,0,7.23,3.26c3,.69,6.34,1.49,10.12,0C24.55,15,28.31,12.09,28,9.67Zm-9.4-.81a6.1,6.1,0,0,1-3,4.41,5.9,5.9,0,0,1-7.71-2.09A5.81,5.81,0,0,1,7,7.23a5.85,5.85,0,0,1,3.61-4.07c.45-.2,4.13-1.8,6.51.81A6.13,6.13,0,0,1,18.58,8.86Z"/><path class="cls-2" d="M17.13,4c-2.38-2.61-6.06-1-6.51-.81A5.85,5.85,0,0,0,7,7.23a5.81,5.81,0,0,0,.84,3.95,5.9,5.9,0,0,0,7.71,2.09A6.07,6.07,0,0,0,17.13,4Zm-2.56,7.15a2.82,2.82,0,0,1-3.22.18A4,4,0,0,1,9.9,6.41a3.31,3.31,0,0,1,2.89-1.62A2.86,2.86,0,0,1,15,5.6,4.2,4.2,0,0,1,14.57,11.12Z"/><path class="cls-1" d="M66.88,3.45a20.2,20.2,0,0,0-3.75-1.83A16.12,16.12,0,0,0,57.07.5a15.89,15.89,0,0,0-6.16,1.36,20.47,20.47,0,0,0-4.7,3.07c-2,1.57-3,2.37-3.19,3.15,0,.22-.15,1.19,1,2.88A11.4,11.4,0,0,0,49.61,15a19.59,19.59,0,0,0,10.66.51A23,23,0,0,0,68,12.6c2.18-1.31,3.93-2.39,4-3.94C72.07,6.69,69.35,5,66.88,3.45ZM62.45,8.2a6.45,6.45,0,0,1-2,4.22c-2.65,2.19-7.16,1-9-2a6.11,6.11,0,0,1-.76-4.95,5.67,5.67,0,0,1,3.81-3.3c.7-.25,3.76-1.31,6.1.82A6.79,6.79,0,0,1,62.45,8.2Z"/><path class="cls-2" d="M60.54,3c-2.34-2.13-5.4-1.07-6.1-.82a5.67,5.67,0,0,0-3.81,3.3,6.11,6.11,0,0,0,.76,4.95c1.86,3,6.37,4.18,9,2a6.45,6.45,0,0,0,2-4.22A6.79,6.79,0,0,0,60.54,3Zm-1.17,7.25c-1.17,1.27-3.13.77-4.17.18S52.48,8.2,52.92,6.31a3.54,3.54,0,0,1,3.81-2.48A4,4,0,0,1,59.3,5.37a.45.45,0,0,1,.07.09C60.11,6.53,60.59,8.92,59.37,10.25Z"/><path class="cls-2" d="M17.13,4c-2.38-2.61-6.06-1-6.51-.81A5.85,5.85,0,0,0,7,7.23a5.81,5.81,0,0,0,.84,3.95,5.9,5.9,0,0,0,7.71,2.09A6.07,6.07,0,0,0,17.13,4Zm-2.56,7.15a2.82,2.82,0,0,1-3.22.18A4,4,0,0,1,9.9,6.41a3.31,3.31,0,0,1,2.89-1.62A2.86,2.86,0,0,1,15,5.6,4.2,4.2,0,0,1,14.57,11.12Z"/><path class="cls-2" d="M60.54,3c-2.34-2.13-5.4-1.07-6.1-.82a5.67,5.67,0,0,0-3.81,3.3,6.11,6.11,0,0,0,.76,4.95c1.86,3,6.37,4.18,9,2a6.45,6.45,0,0,0,2-4.22A6.79,6.79,0,0,0,60.54,3Zm-1.17,7.25c-1.17,1.27-3.13.77-4.17.18S52.48,8.2,52.92,6.31a3.54,3.54,0,0,1,3.81-2.48A4,4,0,0,1,59.3,5.37a.45.45,0,0,1,.07.09C60.11,6.53,60.59,8.92,59.37,10.25Z"/><path d="M15,5.6a2.86,2.86,0,0,0-2.17-.81A3.31,3.31,0,0,0,9.9,6.41a4,4,0,0,0,1.45,4.89,2.82,2.82,0,0,0,3.22-.18A4.2,4.2,0,0,0,15,5.6Zm-.72,4.07c-.46.35-1.45,0-1.45,0s-.54-1.81,0-2.44a1.09,1.09,0,0,1,1.45,0A1.8,1.8,0,0,1,14.24,9.67Z"/><path d="M12.85,12.12a3.26,3.26,0,0,1-1.67-.46A4.2,4.2,0,0,1,9.36,9.07a4,4,0,0,1,.23-2.86,3.66,3.66,0,0,1,3.2-1.83,3.12,3.12,0,0,1,2.42.93h0a4.39,4.39,0,0,1,1,3.18,4.13,4.13,0,0,1-1.39,3A3,3,0,0,1,12.85,12.12Zm0-6.93h0a2.94,2.94,0,0,0-2.58,1.43,3.14,3.14,0,0,0-.17,2.22,3.42,3.42,0,0,0,1.47,2.1,2.48,2.48,0,0,0,2.84-.15,3.25,3.25,0,0,0,1.08-2.36,3.51,3.51,0,0,0-.73-2.54h0A2.51,2.51,0,0,0,12.81,5.19Zm.84,5a3.09,3.09,0,0,1-1-.17L12.51,10l-.06-.2c-.1-.34-.58-2.08.08-2.85a1.41,1.41,0,0,1,1.92,0,1.9,1.9,0,0,1,.62,1.56A2,2,0,0,1,14.44,10h0A1.3,1.3,0,0,1,13.65,10.23Zm-.57-.89a1.41,1.41,0,0,0,1,0h0a1.24,1.24,0,0,0,.31-.89A1.09,1.09,0,0,0,14,7.56a.78.78,0,0,0-1,0C12.82,7.79,12.92,8.69,13.08,9.34Z"/><path d="M59.37,5.46a.45.45,0,0,0-.07-.09,4,4,0,0,0-2.57-1.54,3.54,3.54,0,0,0-3.81,2.48c-.44,1.89,1.16,3.5,2.28,4.12s3,1.09,4.17-.18S60.11,6.53,59.37,5.46ZM59,8.78a1,1,0,0,1-.61.16,3.22,3.22,0,0,1-.92-.16s-.57-1.83,0-2.47a1.19,1.19,0,0,1,1.53,0A1.79,1.79,0,0,1,59,8.78Z"/><path d="M57.44,11.45A5.15,5.15,0,0,1,55,10.8c-1.09-.61-3-2.35-2.48-4.59a3.91,3.91,0,0,1,4.22-2.79A4.28,4.28,0,0,1,59.6,5.11l.07.1c.86,1.23,1.34,3.84,0,5.33A2.87,2.87,0,0,1,57.44,11.45ZM56.36,4.22a3.1,3.1,0,0,0-3.07,2.19c-.38,1.61,1,3.07,2.09,3.66.82.46,2.66,1,3.72-.11a2.62,2.62,0,0,0,.61-1.49,1.62,1.62,0,0,1-.48.66,1.47,1.47,0,0,1-.82.22,4,4,0,0,1-1-.17l-.19-.07-.06-.19c-.11-.35-.61-2.11.09-2.9a1.54,1.54,0,0,1,2-.07l-.15-.24,0,0a3.61,3.61,0,0,0-2.35-1.44Zm1.43,4.22a1.73,1.73,0,0,0,1,0h0a1.3,1.3,0,0,0,.32-.91,1.07,1.07,0,0,0-.34-.89.84.84,0,0,0-1,0C57.52,6.88,57.62,7.79,57.79,8.44Z"/><path class="cls-3" d="M14.24,9.67c-.46.35-1.45,0-1.45,0s-.54-1.81,0-2.44a1.09,1.09,0,0,1,1.45,0A1.8,1.8,0,0,1,14.24,9.67Z"/><path d="M13.65,10.23a3.09,3.09,0,0,1-1-.17L12.51,10l-.06-.2c-.1-.34-.58-2.08.08-2.85a1.41,1.41,0,0,1,1.92,0,1.9,1.9,0,0,1,.62,1.56A2,2,0,0,1,14.44,10h0A1.3,1.3,0,0,1,13.65,10.23Zm-.57-.89a1.41,1.41,0,0,0,1,0h0a1.24,1.24,0,0,0,.31-.89A1.09,1.09,0,0,0,14,7.56a.78.78,0,0,0-1,0C12.82,7.79,12.92,8.69,13.08,9.34Z"/><path class="cls-3" d="M59,8.78a1,1,0,0,1-.61.16,3.22,3.22,0,0,1-.92-.16s-.57-1.83,0-2.47a1.19,1.19,0,0,1,1.53,0A1.79,1.79,0,0,1,59,8.78Z"/><path d="M58.41,9.35a4,4,0,0,1-1-.17l-.19-.07-.06-.19c-.11-.35-.61-2.11.09-2.9a1.53,1.53,0,0,1,2,0,1.94,1.94,0,0,1,.66,1.58,2.1,2.1,0,0,1-.67,1.58A1.47,1.47,0,0,1,58.41,9.35Zm-.62-.91a1.73,1.73,0,0,0,1,0h0a1.3,1.3,0,0,0,.32-.91,1.07,1.07,0,0,0-.34-.89.84.84,0,0,0-1,0C57.52,6.88,57.62,7.79,57.79,8.44Z"/></g></g></svg>