<svg xmlns="http://www.w3.org/2000/svg" xmlns:xlink="http://www.w3.org/1999/xlink" viewBox="0 0 197.95 75.82"><defs><style>.cls-1{fill:url(#Summer);}.cls-2{fill:url(#Summer-2);}</style><radialGradient id="Summer" cx="152.79" cy="37.89" r="41.18" gradientUnits="userSpaceOnUse"><stop offset="0" stop-color="#fff"/><stop offset="0.09" stop-color="#ffedd8"/><stop offset="0.21" stop-color="#ffd5a7"/><stop offset="0.33" stop-color="#ffc17d"/><stop offset="0.46" stop-color="#ffb05b"/><stop offset="0.59" stop-color="#ffa340"/><stop offset="0.72" stop-color="#ff9a2d"/><stop offset="0.86" stop-color="#ff9522"/><stop offset="1" stop-color="#ff931e"/></radialGradient><radialGradient id="Summer-2" cx="45.9" cy="37.99" r="41.56" xlink:href="#Summer"/></defs><title>foot1</title><g id="Layer_2" data-name="Layer 2"><g id="Layer_1-2" data-name="Layer 1"><path class="cls-1" d="M197.41,53.72c-1,1.89-17.89-10.72-28.79-4.73-10.74,5.89-9.46,26.42-13.09,26.28-3-.12-1.31-14.24-9.41-21.15-12-10.21-37.3,2.29-38,.33-.45-1.3,11.95-3.89,22-12.7C148.35,25.77,145.89.64,152.78.5c5.17-.1,5.39,14.14,18.08,30C182.93,45.5,198.3,52,197.41,53.72Z"/><path d="M155.57,75.77h-.06c-1.61-.06-2.07-2.39-2.76-5.92-.94-4.78-2.23-11.32-7-15.35-8.35-7.13-23.62-2.85-31.82-.55-4.33,1.21-6,1.67-6.29.66s.89-1.42,4.13-2.78c4.36-1.83,11.66-4.89,18-10.46,10.54-9.25,14-21.46,16.6-30.37,1.82-6.35,3.13-10.93,6.36-11h.06c2.78,0,4.2,3.44,6.35,8.64,2.32,5.62,5.5,13.32,12.07,21.5,7.58,9.45,16.48,15.52,21.8,19.15,3.77,2.58,5.34,3.64,4.8,4.66s-2.14.29-5.67-1.29c-6-2.69-16.09-7.2-23.32-3.23-6.42,3.52-8.42,12.45-9.87,19C158,72.83,157.34,75.77,155.57,75.77ZM132.91,49.56c5,0,9.87,1.06,13.53,4.18,5,4.26,6.32,11,7.29,15.92.51,2.61,1,5.08,1.82,5.11s1.73-3.33,2.46-6.59c1.5-6.71,3.55-15.89,10.37-19.63,7.66-4.21,18,.43,24.2,3.2a24.1,24.1,0,0,0,4.28,1.67,27.46,27.46,0,0,0-4.38-3.3c-5.36-3.66-14.33-9.78-22-19.36C163.82,22.47,160.6,14.7,158.26,9c-2-4.85-3.38-8.06-5.47-8-2.49.05-3.72,4.34-5.42,10.28-2.59,9-6.13,21.4-16.9,30.85C124,47.79,116.62,50.9,112.2,52.75c-1.2.5-2.43,1-3.1,1.39A46.5,46.5,0,0,0,113.7,53C118.58,51.62,125.91,49.56,132.91,49.56Z"/><path class="cls-2" d="M91.26,53.39c-1,1.9-18.08-10.53-29.22-4.45-11,6-9.87,26.49-13.56,26.38-3.07-.09-1.19-14.21-9.35-21C27.05,44.21,1.18,56.94.52,55,.08,53.69,12.71,51,23,42.09,41.67,26,39.41.87,46.41.67,51.67.51,51.76,14.73,64.5,30.41,76.63,45.32,92.19,51.68,91.26,53.39Z"/><path d="M48.51,75.82h0c-1.63,0-2.07-2.37-2.74-5.89-.91-4.76-2.15-11.28-6.91-15.26-8.44-7-24-2.61-32.37-.24C2,55.69.39,56.16.05,55.15S1,53.72,4.28,52.33c4.45-1.88,11.9-5,18.39-10.62C33.49,32.36,37.16,20.13,39.85,11.2c1.9-6.35,3.28-10.94,6.54-11h.11c2.8,0,4.21,3.42,6.34,8.58,2.3,5.59,5.46,13.24,12,21.34,7.61,9.36,16.59,15.34,22,18.9,3.83,2.55,5.42,3.61,4.86,4.64h0c-.54,1-2.18.3-5.75-1.25-6.09-2.63-16.28-7-23.67-3C55.72,53,53.6,61.9,52.05,68.43,51,72.87,50.3,75.82,48.51,75.82Zm-22.43-26c5,0,9.76,1,13.37,4,5,4.2,6.31,10.92,7.25,15.83.5,2.6,1,5.06,1.79,5.08h0c1,0,1.8-3.37,2.57-6.62,1.59-6.71,3.77-15.9,10.72-19.7,7.82-4.27,18.29.26,24.55,3a23.68,23.68,0,0,0,4.37,1.63,27,27,0,0,0-4.43-3.27c-5.41-3.6-14.47-9.63-22.18-19.1-6.67-8.22-9.87-15.95-12.2-21.6-2-4.83-3.3-8-5.49-8-2.54.07-3.83,4.37-5.62,10.32-2.71,9-6.44,21.44-17.47,31C16.71,48.18,9.17,51.35,4.67,53.25c-1.22.51-2.48,1-3.17,1.42,1-.15,2.85-.68,4.67-1.2C11.23,52,18.86,49.86,26.08,49.86Z"/></g></g></svg>