<svg xmlns="http://www.w3.org/2000/svg" viewBox="0 0 171.03 64.87"><defs><style>.cls-1{fill:#fcd4a5;}</style></defs><title>foot3_1</title><g id="Layer_2" data-name="Layer 2"><g id="Layer_1-2" data-name="Layer 1"><path class="cls-1" d="M60.51,50.5c-6.37,3.52-19-7.44-20-6-.39.55.23,1.57,2.82,6.51,4.33,8.27,4.37,8.93,4.18,9.49-1.58,4.68-20.1,6-24-1-2.82-5,2.72-13.12,1-14-1.15-.59-4.24,2.73-5.06,3.75a45.16,45.16,0,0,0-2.94,4.25S.87,48.29.51,42.5c-.28-4.58,9.31-4.42,18-15,4.15-5.06,8.18-12.68,11-18,3.38-6.39,4.26-9,6-9,3.49,0,2.93,10.48,11,22,6.47,9.24,17,17,17,17S64,48.58,60.51,50.5Z"/><path d="M36.15,64.87c-5.43,0-11-1.5-13.08-5.13-1.79-3.19-.45-7.41.53-10.5.35-1.09,1-3.13.68-3.29-.56-.3-3,1.79-4.44,3.61a44.12,44.12,0,0,0-2.9,4.2l-.21.34L16.35,54C15.7,53.76.38,48.59,0,42.53c-.15-2.48,2.14-3.71,5.32-5.41a38.77,38.77,0,0,0,12.79-9.94c4.09-5,8-12.41,10.9-17.82l0-.09c.7-1.31,1.28-2.46,1.8-3.47C33,1.71,33.82,0,35.5,0h0c2,0,2.81,2.53,4,6.34a55,55,0,0,0,7.37,15.87C53.26,31.28,63.7,39,63.8,39.1l.19.14,0,.23c0,.39.45,9.42-3.26,11.47-4.41,2.43-11.37-1.53-16-4.15a19.28,19.28,0,0,0-3.88-1.92c0,.41.81,2,2.1,4.43l.78,1.48c4.59,8.76,4.45,9.16,4.21,9.88-.83,2.46-5.24,3.72-9.1,4.08C38,64.82,37.07,64.87,36.15,64.87ZM24.22,44.94a1.09,1.09,0,0,1,.51.11c1.07.55.57,2.12-.18,4.49-.92,2.91-2.19,6.9-.61,9.72,2.15,3.83,9.2,5,14.85,4.49,4.38-.41,7.69-1.78,8.24-3.41.16-.46-.46-2.05-4.15-9.1l-.77-1.47c-2.15-4.08-2.54-4.82-2-5.56s2.13,0,5.16,1.71c4.42,2.51,11.09,6.3,15,4.14h0c2.56-1.4,2.86-7.7,2.76-10.3-1.47-1.11-11-8.46-16.92-17A55.74,55.74,0,0,1,38.6,6.65C37.51,3.25,36.79,1,35.51,1h0c-1.08,0-1.92,1.65-3.76,5.26-.52,1-1.11,2.16-1.8,3.47l-.05.1c-2.89,5.45-6.85,12.92-11,18A39.62,39.62,0,0,1,5.81,38C2.49,39.77.9,40.71,1,42.47c.27,4.35,10.78,8.87,15.28,10.43a43.69,43.69,0,0,1,2.76-4S22.3,44.94,24.22,44.94Z"/><path class="cls-1" d="M167.51,50.5c-6.37,3.52-19-7.44-20-6-.39.55.23,1.57,2.82,6.51,4.33,8.27,4.37,8.93,4.18,9.49-1.58,4.68-20.1,6-24-1-2.82-5,2.72-13.12,1-14-1.15-.59-4.24,2.73-5.06,3.75a45.16,45.16,0,0,0-2.94,4.25s-15.64-5.21-16-11c-.28-4.58,9.31-4.42,18-15,4.15-5.06,8.18-12.68,11-18,3.38-6.39,4.26-9,6-9,3.49,0,2.93,10.48,11,22,6.47,9.24,17,17,17,17S171,48.58,167.51,50.5Z"/><path d="M143.15,64.87c-5.43,0-11.05-1.5-13.08-5.13-1.79-3.19-.45-7.41.53-10.5.35-1.09,1-3.13.68-3.29-.56-.3-3,1.79-4.44,3.61a44.12,44.12,0,0,0-2.9,4.2l-.21.34-.38-.13c-.65-.21-16-5.38-16.34-11.44-.15-2.48,2.14-3.71,5.32-5.41a38.77,38.77,0,0,0,12.79-9.94c4.09-5,8-12.41,10.9-17.82l0-.09c.7-1.31,1.28-2.46,1.8-3.47C140,1.71,140.82,0,142.5,0h0c2,0,2.81,2.53,4,6.34a55,55,0,0,0,7.37,15.87C160.26,31.28,170.7,39,170.8,39.1l.19.14,0,.23c0,.39.45,9.42-3.26,11.47-4.41,2.43-11.37-1.53-16-4.15a19.28,19.28,0,0,0-3.88-1.92c0,.41.81,2,2.1,4.43l.78,1.48c4.59,8.76,4.45,9.16,4.21,9.88-.83,2.46-5.24,3.72-9.1,4.08C145,64.82,144.07,64.87,143.15,64.87ZM131.22,44.94a1.09,1.09,0,0,1,.51.11c1.07.55.57,2.12-.18,4.49-.92,2.91-2.19,6.9-.61,9.72,2.15,3.83,9.21,5,14.85,4.49,4.38-.41,7.69-1.78,8.24-3.41.16-.46-.46-2.05-4.15-9.1l-.77-1.47c-2.15-4.08-2.54-4.82-2-5.56s2.13,0,5.16,1.71c4.42,2.51,11.09,6.3,15,4.14h0c2.56-1.4,2.86-7.7,2.76-10.3-1.47-1.11-11-8.46-16.92-17a55.74,55.74,0,0,1-7.5-16.14C144.51,3.25,143.79,1,142.51,1h0c-1.08,0-1.92,1.65-3.76,5.26-.52,1-1.11,2.16-1.8,3.47l0,.1c-2.89,5.45-6.85,12.92-11,18A39.62,39.62,0,0,1,112.81,38c-3.32,1.77-4.91,2.71-4.8,4.47.27,4.35,10.78,8.87,15.28,10.43a43.69,43.69,0,0,1,2.76-4S129.3,44.94,131.22,44.94Z"/></g></g></svg>