<svg xmlns="http://www.w3.org/2000/svg" viewBox="0 0 181.62 99"><defs><style>.cls-1{fill:#fdf57a;}</style></defs><title>foot2</title><g id="Layer_2" data-name="Layer 2"><g id="Layer_1-2" data-name="Layer 1"><path class="cls-1" d="M85.75,80c-1.7,5.15-8.4,5.86-8.84,5.9-3,.28-5.24-.78-7.81-2-3.29-1.6-4.93-3.22-11-8.5-6.8-5.93-7.68-6.45-8.27-6.12-1.56.85.67,6.48,1.63,18.36.54,6.76.13,8.79-1.3,9.92-2.24,1.76-6.44.89-8.93-1.17C38.41,94,38,90.32,37.59,85.82c-.77-8.18,1.34-12.18-.3-13.15-1.86-1.11-4.84,3.86-13.07,7.36a26.9,26.9,0,0,1-12.41,2.41C8.54,82.2,3.29,81.83,1.29,78a8.41,8.41,0,0,1,1.17-8.92c2.57-3,5.8-1.59,13.54-3.27,4.74-1,13.21-2.87,16.3-9,.34-.67,1.11-2.36,1-7.93a67.33,67.33,0,0,0-2.75-17.5C27.3,17.84,35.66.47,40.7.5S53.64,18.6,51.41,34.17c-.53,3.76-1.67,7.45-.7,13,.35,2,1.72,9.86,8.1,15.18,4.27,3.56,9.35,4.81,13.36,5.79,6.22,1.52,9.14.82,11.64,3.54A8.72,8.72,0,0,1,85.75,80Z"/><path d="M47,99a10.13,10.13,0,0,1-6.12-2.23c-3-2.54-3.42-6.6-3.83-10.9a43.68,43.68,0,0,1,.17-9.28c.2-1.9.33-3.16-.22-3.49s-1.8.54-3.43,1.8a39.9,39.9,0,0,1-9.19,5.59,27.69,27.69,0,0,1-12.64,2.45C8.46,82.7,3,82.29.85,78.26a8.91,8.91,0,0,1,1.23-9.48c1.74-2,3.77-2.18,6.84-2.45a50,50,0,0,0,7-1c4.53-1,13-2.82,16-8.7.26-.51,1-2.08,1-7.69a61.85,61.85,0,0,0-2.38-16c-.14-.52-.26-1-.35-1.37C27.72,21.7,31.41,9.08,36.19,3c1.58-2,3.12-3,4.52-3,1.18,0,2.45.79,3.77,2.32,4.31,5,9.29,18.88,7.43,31.92-.11.77-.24,1.54-.38,2.32A28.1,28.1,0,0,0,51.2,47.1c1.41,8,5.09,12.52,7.93,14.89,4.2,3.49,9.17,4.71,13.16,5.68,2,.5,3.68.75,5.14,1,3,.46,5,.76,6.75,2.71a9.21,9.21,0,0,1,2,8.82h0c-1.82,5.51-9,6.21-9.27,6.24-3.19.3-5.56-.86-8.08-2.08-2.93-1.43-4.59-2.88-9-6.75l-2.09-1.82c-3.81-3.33-7.28-6.3-7.69-6.06-.58.31-.18,2.73.32,5.79S51.55,82.42,52,87.59c.54,6.7.2,9-1.49,10.35A5.46,5.46,0,0,1,47,99ZM36.72,72a1.58,1.58,0,0,1,.83.23c1.11.66,1,2.09.7,4.46a43.23,43.23,0,0,0-.16,9.07c.4,4.27.74,8,3.47,10.23,2.25,1.86,6.22,2.8,8.3,1.16,1.17-.92,1.66-2.64,1.11-9.49-.41-5.13-1.07-9.11-1.54-12-.7-4.24-1-6.18.17-6.83.91-.5,1.64-.1,8.84,6.18l2.09,1.83c4.35,3.81,6,5.23,8.79,6.6,2.38,1.16,4.63,2.26,7.55,2,.27,0,6.79-.66,8.41-5.56A8.18,8.18,0,0,0,83.44,72c-1.55-1.7-3.29-2-6.17-2.4-1.47-.23-3.15-.49-5.22-1-4.09-1-9.18-2.25-13.56-5.9-3-2.47-6.82-7.17-8.27-15.47a29.21,29.21,0,0,1,.32-10.9c.14-.77.27-1.52.38-2.28,1.82-12.75-3-26.27-7.2-31.13-1.1-1.28-2.15-2-3-2h0c-1,0-2.36.94-3.72,2.66-3.89,4.91-8.45,17.1-5.89,27.67.09.39.21.84.35,1.35a63.9,63.9,0,0,1,2.41,16.26c.07,5.26-.59,7.18-1.09,8.17-3.2,6.3-11.94,8.2-16.64,9.22a52.52,52.52,0,0,1-7.1,1c-3,.26-4.7.41-6.17,2.11A7.87,7.87,0,0,0,1.73,77.8c1.87,3.54,6.81,3.9,10.08,4.14A26.77,26.77,0,0,0,24,79.57a39,39,0,0,0,9-5.47C34.57,72.9,35.72,72,36.72,72Z"/><path class="cls-1" d="M180.75,80c-1.7,5.15-8.4,5.86-8.84,5.9-3,.28-5.24-.78-7.81-2-3.29-1.6-4.93-3.22-11-8.5-6.8-5.93-7.68-6.45-8.27-6.12-1.56.85.67,6.48,1.63,18.36.54,6.76.13,8.79-1.3,9.92-2.24,1.76-6.44.89-8.93-1.17-2.83-2.35-3.23-6.06-3.65-10.56-.77-8.18,1.34-12.18-.3-13.15-1.86-1.11-4.84,3.86-13.07,7.36a26.9,26.9,0,0,1-12.41,2.41c-3.27-.24-8.52-.61-10.52-4.41a8.41,8.41,0,0,1,1.17-8.92c2.57-3,5.8-1.59,13.54-3.27,4.74-1,13.21-2.87,16.3-9,.34-.67,1.11-2.36,1-7.93a67.33,67.33,0,0,0-2.75-17.5C122.3,17.84,130.66.47,135.7.5s12.94,18.1,10.71,33.67c-.53,3.76-1.67,7.45-.7,13,.35,2,1.72,9.86,8.1,15.18,4.27,3.56,9.35,4.81,13.36,5.79,6.22,1.52,9.14.82,11.64,3.54A8.72,8.72,0,0,1,180.75,80Z"/><path d="M142,99a10.13,10.13,0,0,1-6.12-2.23c-3-2.54-3.42-6.6-3.83-10.9a43.68,43.68,0,0,1,.17-9.28c.2-1.9.33-3.16-.22-3.49s-1.8.54-3.43,1.8a39.9,39.9,0,0,1-9.19,5.59,27.69,27.69,0,0,1-12.64,2.45c-3.32-.24-8.81-.65-10.93-4.68a8.91,8.91,0,0,1,1.23-9.48c1.74-2,3.77-2.18,6.84-2.45a50,50,0,0,0,7-1c4.53-1,13-2.82,16-8.7.26-.51,1-2.08,1-7.69a61.85,61.85,0,0,0-2.38-16c-.14-.52-.26-1-.35-1.37-2.39-9.87,1.3-22.49,6.08-28.53,1.58-2,3.15-3,4.52-3,1.18,0,2.45.79,3.77,2.32,4.31,5,9.29,18.88,7.43,31.92-.11.77-.24,1.54-.38,2.32a28.1,28.1,0,0,0-.33,10.54c1.41,8,5.09,12.52,7.93,14.89,4.2,3.49,9.17,4.71,13.16,5.68,2,.5,3.68.75,5.14,1,3,.46,5,.76,6.75,2.71a9.21,9.21,0,0,1,2,8.82h0c-1.82,5.51-9,6.21-9.27,6.24-3.19.3-5.56-.86-8.08-2.08-2.93-1.43-4.59-2.88-9-6.75l-2.09-1.82c-3.81-3.33-7.29-6.3-7.69-6.06-.58.31-.18,2.73.32,5.79s1.14,6.92,1.56,12.09c.54,6.7.2,9-1.49,10.35A5.46,5.46,0,0,1,142,99ZM131.72,72a1.58,1.58,0,0,1,.83.23c1.11.66,1,2.09.7,4.46a43.23,43.23,0,0,0-.16,9.07c.4,4.27.74,8,3.47,10.23,2.26,1.86,6.22,2.8,8.3,1.16,1.17-.92,1.66-2.64,1.11-9.49-.41-5.13-1.07-9.11-1.54-12-.7-4.24-1-6.18.17-6.83.91-.5,1.64-.1,8.84,6.18l2.08,1.82c4.36,3.81,6,5.24,8.8,6.61,2.39,1.16,4.64,2.26,7.55,2,.27,0,6.79-.66,8.41-5.56A8.18,8.18,0,0,0,178.44,72c-1.55-1.7-3.29-2-6.17-2.4-1.47-.23-3.14-.49-5.22-1-4.09-1-9.18-2.25-13.56-5.9-3-2.47-6.82-7.17-8.27-15.47a29.21,29.21,0,0,1,.32-10.9c.14-.77.27-1.52.38-2.28,1.82-12.75-3-26.27-7.2-31.13-1.1-1.28-2.15-2-3-2h0c-1,0-2.36.94-3.72,2.66-3.89,4.91-8.45,17.1-5.89,27.67.09.39.21.84.35,1.35a63.9,63.9,0,0,1,2.41,16.26c.07,5.26-.59,7.18-1.09,8.17-3.2,6.3-11.94,8.2-16.64,9.22a52.52,52.52,0,0,1-7.1,1c-3,.26-4.7.41-6.17,2.11a7.87,7.87,0,0,0-1.11,8.36c1.87,3.54,6.81,3.9,10.08,4.14A26.77,26.77,0,0,0,119,79.57a39,39,0,0,0,9-5.47C129.57,72.9,130.72,72,131.72,72Z"/></g></g></svg>