<svg xmlns="http://www.w3.org/2000/svg" viewBox="0 0 127.53 25.55"><defs><style>.cls-1{fill:#ff7bac;}</style></defs><title>freckles</title><g id="Layer_2" data-name="Layer 2"><g id="Layer_1-2" data-name="Layer 1"><path d="M31.73,3.33A2,2,0,0,0,30.62,3a1.22,1.22,0,0,0-.43.08c-.73.27-1.08,1.38-1.14,1.6L29,4.82l.08.18c.17.33.79,1.44,1.64,1.54h.13a1.57,1.57,0,0,0,1-.44,1.81,1.81,0,0,0,.64-1.34A1.77,1.77,0,0,0,31.73,3.33Zm-.5,2a.68.68,0,0,1-.39.19c-.18,0-.52-.39-.77-.83A1.61,1.61,0,0,1,30.54,4a.91.91,0,0,1,.62.19.8.8,0,0,1,.37.62A.79.79,0,0,1,31.23,5.36Z"/><path class="cls-1" d="M31.53,4.77a.79.79,0,0,1-.3.59.68.68,0,0,1-.39.19c-.18,0-.52-.39-.77-.83A1.61,1.61,0,0,1,30.54,4a.91.91,0,0,1,.62.19A.8.8,0,0,1,31.53,4.77Z"/><path d="M34.73,20.33A2,2,0,0,0,33.62,20a1.22,1.22,0,0,0-.43.08c-.73.27-1.08,1.38-1.14,1.6l0,.19.08.18c.17.33.79,1.44,1.64,1.54h.13a1.57,1.57,0,0,0,1-.44,1.81,1.81,0,0,0,.64-1.34A1.77,1.77,0,0,0,34.73,20.33Zm-.5,2a.68.68,0,0,1-.39.19c-.18,0-.52-.39-.77-.83a1.61,1.61,0,0,1,.47-.76.91.91,0,0,1,.62.19.72.72,0,0,1,.07,1.21Z"/><path class="cls-1" d="M34.53,21.77a.79.79,0,0,1-.3.59.68.68,0,0,1-.39.19c-.18,0-.52-.39-.77-.83a1.61,1.61,0,0,1,.47-.76.91.91,0,0,1,.62.19A.8.8,0,0,1,34.53,21.77Z"/><path d="M2.73,9.33A2,2,0,0,0,1.62,9,1.22,1.22,0,0,0,1.19,9C.46,9.3.11,10.41.05,10.63l0,.19L.08,11c.17.33.79,1.44,1.64,1.54h.13a1.57,1.57,0,0,0,1-.44,1.81,1.81,0,0,0,.64-1.34A1.77,1.77,0,0,0,2.73,9.33Zm-.5,2a.68.68,0,0,1-.39.19c-.18,0-.52-.39-.77-.83A1.61,1.61,0,0,1,1.54,10a.91.91,0,0,1,.62.19.72.72,0,0,1,.07,1.21Z"/><path class="cls-1" d="M2.53,10.77a.79.79,0,0,1-.3.59.68.68,0,0,1-.39.19c-.18,0-.52-.39-.77-.83A1.61,1.61,0,0,1,1.54,10a.91.91,0,0,1,.62.19A.8.8,0,0,1,2.53,10.77Z"/><path d="M17.73,13.33A2,2,0,0,0,16.62,13a1.22,1.22,0,0,0-.43.08c-.73.27-1.08,1.38-1.14,1.6l-.05.19.08.18c.17.33.79,1.44,1.64,1.54h.13a1.57,1.57,0,0,0,1-.44,1.81,1.81,0,0,0,.64-1.34A1.77,1.77,0,0,0,17.73,13.33Zm-.5,2a.68.68,0,0,1-.39.19c-.18,0-.52-.39-.77-.83a1.61,1.61,0,0,1,.47-.76.91.91,0,0,1,.62.19.72.72,0,0,1,.07,1.21Z"/><path class="cls-1" d="M17.53,14.77a.79.79,0,0,1-.3.59.68.68,0,0,1-.39.19c-.18,0-.52-.39-.77-.83a1.61,1.61,0,0,1,.47-.76.91.91,0,0,1,.62.19A.8.8,0,0,1,17.53,14.77Z"/><path d="M91.73,22.33A2,2,0,0,0,90.62,22a1.22,1.22,0,0,0-.43.08c-.73.27-1.08,1.38-1.14,1.6l0,.19.08.18c.17.33.79,1.44,1.64,1.54h.13a1.57,1.57,0,0,0,1-.44,1.81,1.81,0,0,0,.64-1.34A1.77,1.77,0,0,0,91.73,22.33Zm-.5,2a.68.68,0,0,1-.39.19c-.18,0-.52-.39-.77-.83a1.61,1.61,0,0,1,.47-.76.91.91,0,0,1,.62.19.72.72,0,0,1,.07,1.21Z"/><path class="cls-1" d="M91.53,23.77a.79.79,0,0,1-.3.59.68.68,0,0,1-.39.19c-.18,0-.52-.39-.77-.83a1.61,1.61,0,0,1,.47-.76.91.91,0,0,1,.62.19A.8.8,0,0,1,91.53,23.77Z"/><path d="M99.73,5.33A2,2,0,0,0,98.62,5a1.22,1.22,0,0,0-.43.08c-.73.27-1.08,1.38-1.14,1.6l0,.19.08.18c.17.33.79,1.44,1.64,1.54h.13a1.57,1.57,0,0,0,1-.44,1.81,1.81,0,0,0,.64-1.34A1.77,1.77,0,0,0,99.73,5.33Zm-.5,2a.68.68,0,0,1-.39.19c-.18,0-.52-.39-.77-.83A1.61,1.61,0,0,1,98.54,6a.91.91,0,0,1,.62.19.8.8,0,0,1,.37.62A.79.79,0,0,1,99.23,7.36Z"/><path class="cls-1" d="M99.53,6.77a.79.79,0,0,1-.3.59.68.68,0,0,1-.39.19c-.18,0-.52-.39-.77-.83A1.61,1.61,0,0,1,98.54,6a.91.91,0,0,1,.62.19A.8.8,0,0,1,99.53,6.77Z"/><path d="M11.3,3.38a2.05,2.05,0,0,0,1.17.06,1.18,1.18,0,0,0,.39-.19,2.54,2.54,0,0,0,.67-1.85V1.21l-.13-.16c-.25-.27-1.15-1.17-2-1l-.13,0a1.55,1.55,0,0,0-.88.7,1.84,1.84,0,0,0-.26,1.47A1.78,1.78,0,0,0,11.3,3.38Zm-.07-2.09A.74.74,0,0,1,11.56,1c.18,0,.6.23,1,.59a1.6,1.6,0,0,1-.24.86.89.89,0,0,1-.65,0,.83.83,0,0,1-.53-.49A.81.81,0,0,1,11.23,1.29Z"/><path class="cls-1" d="M11.1,1.94a.81.81,0,0,1,.13-.65A.74.74,0,0,1,11.56,1c.18,0,.6.23,1,.59a1.6,1.6,0,0,1-.24.86.89.89,0,0,1-.65,0A.83.83,0,0,1,11.1,1.94Z"/><path d="M106.24,19.38a1.92,1.92,0,0,0,1.18.05,1.2,1.2,0,0,0,.39-.2,2.49,2.49,0,0,0,.63-1.85v-.2l-.13-.15c-.26-.27-1.17-1.16-2-1a.5.5,0,0,0-.13,0,1.58,1.58,0,0,0-.87.72,1.77,1.77,0,0,0-.23,1.46A1.75,1.75,0,0,0,106.24,19.38Zm-.09-2.08a.67.67,0,0,1,.32-.3,1.8,1.8,0,0,1,1,.58,1.62,1.62,0,0,1-.23.86.91.91,0,0,1-.65,0A.79.79,0,0,1,106,18,.78.78,0,0,1,106.15,17.3Z"/><path class="cls-1" d="M106,18a.78.78,0,0,1,.12-.65.67.67,0,0,1,.32-.3,1.8,1.8,0,0,1,1,.58,1.62,1.62,0,0,1-.23.86.91.91,0,0,1-.65,0A.79.79,0,0,1,106,18Z"/><path d="M115.73,2.33A2,2,0,0,0,114.62,2a1.22,1.22,0,0,0-.43.08c-.73.27-1.08,1.38-1.14,1.6l0,.19.08.18c.17.33.79,1.44,1.64,1.54h.13a1.57,1.57,0,0,0,1-.44,1.81,1.81,0,0,0,.64-1.34A1.77,1.77,0,0,0,115.73,2.33Zm-.5,2a.68.68,0,0,1-.39.19c-.18,0-.52-.39-.77-.83a1.61,1.61,0,0,1,.47-.76.91.91,0,0,1,.62.19.8.8,0,0,1,.37.62A.79.79,0,0,1,115.23,4.36Z"/><path class="cls-1" d="M115.53,3.77a.79.79,0,0,1-.3.59.68.68,0,0,1-.39.19c-.18,0-.52-.39-.77-.83a1.61,1.61,0,0,1,.47-.76.91.91,0,0,1,.62.19A.8.8,0,0,1,115.53,3.77Z"/><path d="M122.73,22.33a2,2,0,0,0-1.11-.38,1.22,1.22,0,0,0-.43.08c-.73.27-1.08,1.38-1.14,1.6l0,.19.08.18c.17.33.79,1.44,1.64,1.54h.13a1.57,1.57,0,0,0,1-.44,1.81,1.81,0,0,0,.64-1.34A1.77,1.77,0,0,0,122.73,22.33Zm-.5,2a.68.68,0,0,1-.39.19c-.18,0-.52-.39-.77-.83a1.61,1.61,0,0,1,.47-.76.91.91,0,0,1,.62.19.72.72,0,0,1,.07,1.21Z"/><path class="cls-1" d="M122.53,23.77a.79.79,0,0,1-.3.59.68.68,0,0,1-.39.19c-.18,0-.52-.39-.77-.83a1.61,1.61,0,0,1,.47-.76.91.91,0,0,1,.62.19A.8.8,0,0,1,122.53,23.77Z"/><path d="M126.73,7.33A2,2,0,0,0,125.62,7a1.22,1.22,0,0,0-.43.08c-.73.27-1.08,1.38-1.14,1.6l0,.19.08.18c.17.33.79,1.44,1.64,1.54h.13a1.57,1.57,0,0,0,1-.44,1.81,1.81,0,0,0,.64-1.34A1.77,1.77,0,0,0,126.73,7.33Zm-.5,2a.68.68,0,0,1-.39.19c-.18,0-.52-.39-.77-.83a1.61,1.61,0,0,1,.47-.76.91.91,0,0,1,.62.19.72.72,0,0,1,.07,1.21Z"/><path class="cls-1" d="M126.53,8.77a.79.79,0,0,1-.3.59.68.68,0,0,1-.39.19c-.18,0-.52-.39-.77-.83a1.61,1.61,0,0,1,.47-.76.91.91,0,0,1,.62.19A.8.8,0,0,1,126.53,8.77Z"/></g></g></svg>