<svg xmlns="http://www.w3.org/2000/svg" viewBox="0 0 71.05 22.31"><title>iris1</title><g id="Layer_2" data-name="Layer 2"><g id="Layer_1-2" data-name="Layer 1"><path d="M14.36,22.31A16.11,16.11,0,0,1,3.75,18.15c-.88-.81-3.55-3.27-3.74-7C-.24,6.09,4.15,1.73,8.54.45h0C12.6-.74,17.77.48,21.7,3.57c3.2,2.51,5,5.71,4.83,8.78-.17,3.9-3.47,7.2-6.66,8.74A12.66,12.66,0,0,1,14.36,22.31Z"/><path d="M63.24,1.1C55.67-1.41,45.43,5,45.48,11.86c0,3.79,3.13,7,6.07,8.54,5.51,2.91,12.06.83,15.66-2.28.94-.81,3.51-3,3.81-6.51C71.43,6.93,67.49,2.52,63.24,1.1Zm3.4,8a6.21,6.21,0,0,1-2.46,4.08c-2.32,1.95-6.54,3.24-10.09,1.42-1.9-1-3.91-3-3.93-5.36C50.13,5,56.73,1,61.61,2.54,64.35,3.43,66.9,6.2,66.64,9.14Z"/><path d="M59.66,1.05a15.52,15.52,0,0,0-9,3c-3,2.19-4.74,5-4.72,7.76,0,3.5,2.93,6.59,5.8,8.1,5.11,2.7,11.46.93,15.1-2.21.92-.79,3.36-2.89,3.64-6.18.4-4.5-3.55-8.69-7.44-10h0A10.93,10.93,0,0,0,59.66,1.05Z"/></g></g></svg>