<svg xmlns="http://www.w3.org/2000/svg" viewBox="0 0 71.5 14.5"><defs><style>.cls-1{stroke:#000;stroke-miterlimit:10;}</style></defs><title>iris2</title><g id="Layer_2" data-name="Layer 2"><g id="Layer_1-2" data-name="Layer 1"><path class="cls-1" d="M25.37,7.68c-.08-.08-.26-.24-.47-.46C23.35,5.63,23.51,5,22.31,3.83A9.51,9.51,0,0,0,18,1.71a21.9,21.9,0,0,0-6.74-.46l-.61,0C4.38,1.62,1.25,1.82.69,3,0,4.47,1.49,6.6,2.84,8.49A12.85,12.85,0,0,0,7.6,12.72,14.59,14.59,0,0,0,15,14a23.9,23.9,0,0,0,8.22-1.69c1.22-.42,4.44-1.53,4.33-2.54C27.46,9.43,27.1,9.27,25.37,7.68Z"/><path d="M59.46,14c-.75,0-1.49-.05-2.23-.1a20.86,20.86,0,0,1-7.57-2.19l-.06,0c-2.23-1-4.26-2.1-4.09-3.26.06-.37.25-.53.88-1.09.31-.26.73-.63,1.31-1.17l.45-.44a8.63,8.63,0,0,0,1.38-1.81,6.29,6.29,0,0,1,1.2-1.54A8.56,8.56,0,0,1,55,.34,18.06,18.06,0,0,1,61.34.23h.14l.46.06c6.29.74,8.87,1.1,9.4,2.51h0c.67,1.77-.91,4-2.32,5.91A12.56,12.56,0,0,1,64.27,13,10.52,10.52,0,0,1,59.46,14Z"/></g></g></svg>