<svg xmlns="http://www.w3.org/2000/svg" viewBox="0 0 72.5 17.53"><title>iris3</title><g id="Layer_2" data-name="Layer 2"><g id="Layer_1-2" data-name="Layer 1"><path class="cls-1" d="M28,9.67c-.1-.78-1-1.61-2.89-3.26a20.12,20.12,0,0,0-4.34-3.25A14.48,14.48,0,0,0,15,1.53a14.85,14.85,0,0,0-5.78.81A18.69,18.69,0,0,0,5.56,4l-1.31.77c-.08,0-1,.63-1.5,1S.51,7.48.5,8.86c0,1.53,1.61,2.68,3.62,4.07a21.41,21.41,0,0,0,7.23,3.26c3,.69,6.34,1.49,10.12,0C24.55,15,28.31,12.09,28,9.67Z"/><path class="cls-1" d="M66.88,3.45a20.2,20.2,0,0,0-3.75-1.83A16.12,16.12,0,0,0,57.07.5a15.89,15.89,0,0,0-6.16,1.36,20.47,20.47,0,0,0-4.7,3.07c-2,1.57-3,2.37-3.19,3.15,0,.22-.15,1.19,1,2.88A11.4,11.4,0,0,0,49.61,15a19.59,19.59,0,0,0,10.66.51A23,23,0,0,0,68,12.6c2.18-1.31,3.93-2.39,4-3.94C72.07,6.69,69.35,5,66.88,3.45Z"/></g></g></svg>