<svg xmlns="http://www.w3.org/2000/svg" viewBox="0 0 43 23.68"><defs><style>.cls-1{fill:#bf5c81;}.cls-2{fill:#ff7bac;}.cls-3{fill:#eaebf3;}</style></defs><title>mouth1</title><g id="Layer_2" data-name="Layer 2"><g id="Layer_1-2" data-name="Layer 1"><path class="cls-1" d="M37.28,11.92c-1.47,1-2.46,1-4.34,2.57A9.92,9.92,0,0,0,31.45,16a.62.62,0,0,0,0-.49c-.2-.51-.85-.26-2.86-.74-1.56-.38-3.59-1.09-4.58-.71s-.92,1-2,1.41-3.56-.47-4.58-.7c-1.89-.44-4.32-.15-4.58.7a.33.33,0,0,0,0,.22,16.6,16.6,0,0,0-1.2-1.21C8.81,12.43,7.12,13.25,5,11.92.73,9.32-.33,1.52,1.1.6S5.53,6.47,13.56,9a21.67,21.67,0,0,0,7.8.87A27.55,27.55,0,0,0,32.13,6.8c6.75-3.19,9-6.52,10-5.69C43.36,2.17,41.58,9.05,37.28,11.92Z"/><path d="M29.72,19,31,15.83a.58.58,0,0,0,0-.13,3.51,3.51,0,0,0-.62-.1,17.88,17.88,0,0,1-1.89-.34l-1-.26c-1.18-.32-2.64-.71-3.28-.46a1.82,1.82,0,0,0-.81.58,2.76,2.76,0,0,1-1.16.82c-.84.32-2.44,0-4.13-.49l-.74-.19c-2-.46-3.89,0-4,.36l.5,1.92L12.54,16a13.14,13.14,0,0,0-1.12-1.14,8.75,8.75,0,0,0-3.85-1.56,7.78,7.78,0,0,1-2.87-1C1.33,10.27,0,5.37,0,2.77,0,1.84.13.63.83.18,1.74-.42,2.68.55,4.1,2a22.53,22.53,0,0,0,9.61,6.5,21,21,0,0,0,7.62.85,27.21,27.21,0,0,0,10.59-3,40.46,40.46,0,0,0,7.22-4.42C40.76.73,41.65.07,42.43.73A2.42,2.42,0,0,1,43,2.79c-.14,2.48-2,7.23-5.43,9.54h0a10.53,10.53,0,0,1-1.65.89,10.71,10.71,0,0,0-2.65,1.65,9.11,9.11,0,0,0-1.41,1.45Zm-14.07-5a8.71,8.71,0,0,1,2,.22l.77.19c1,.27,2.91.76,3.53.53a1.7,1.7,0,0,0,.76-.56,2.93,2.93,0,0,1,1.2-.85c.94-.36,2.44,0,3.9.43l1,.26a17,17,0,0,0,1.78.32A2.11,2.11,0,0,1,31.7,15c.28-.28.58-.56.92-.85a10.93,10.93,0,0,1,2.87-1.79A11.39,11.39,0,0,0,37,11.5h0a12.73,12.73,0,0,0,5-8.77c0-.8-.11-1.15-.21-1.23s-1.26.65-2.05,1.23a41.38,41.38,0,0,1-7.39,4.52,28,28,0,0,1-11,3.11,22.13,22.13,0,0,1-8-.89,23.37,23.37,0,0,1-10-6.76C2.67,2,1.6.87,1.37,1S1,1.66,1,2.76c0,2.57,1.35,7,4.22,8.73a7,7,0,0,0,2.55.87A9.76,9.76,0,0,1,12,14.08a6.84,6.84,0,0,1,.77.74A4.58,4.58,0,0,1,15.65,14.07Z"/><path d="M22.45,23.68h-.26c-2.53-.13-4.65-2.36-6.9-4.73L15,18.66l-1.3-1.37L12.46,16l0-.13a.85.85,0,0,1,0-.5c.4-1.29,3.28-1.47,5.17-1l.77.19c1,.27,2.91.76,3.53.53a1.7,1.7,0,0,0,.76-.56,2.93,2.93,0,0,1,1.2-.85c.94-.36,2.44,0,3.9.43l1,.26a17,17,0,0,0,1.78.32c.69.09,1.2.15,1.43.73a1.1,1.1,0,0,1,0,.85l-.07.13c-.26.32-.47.64-.69,1a15.94,15.94,0,0,1-1.72,2.19,16.88,16.88,0,0,1-4,3.35A6.21,6.21,0,0,1,22.45,23.68Zm-9-8.14,1,1L15.76,18l.26.28c2.1,2.22,4.09,4.32,6.22,4.42A5,5,0,0,0,25,21.94a15.85,15.85,0,0,0,3.7-3.15,14.24,14.24,0,0,0,1.63-2.07c.22-.32.43-.63.68-.95a.42.42,0,0,0,0-.07,3.51,3.51,0,0,0-.62-.1,17.88,17.88,0,0,1-1.89-.34l-1-.26c-1.18-.32-2.64-.71-3.28-.46a1.82,1.82,0,0,0-.81.58,2.76,2.76,0,0,1-1.16.82c-.84.32-2.44,0-4.13-.49l-.74-.19A5.79,5.79,0,0,0,13.45,15.54Z"/><path class="cls-2" d="M31.45,16a11.89,11.89,0,0,1-1.89,2.6c-1.75,2.06-2.66,3.1-3.86,3.6a4.28,4.28,0,0,1-.46.17,7.86,7.86,0,0,1-2.43.35,6.59,6.59,0,0,1-2.9-.52,7.16,7.16,0,0,1-2.41-2.06,29.09,29.09,0,0,0-3.43-3.23c-.69-.57-1.1-.9-1.16-1.22a.33.33,0,0,1,0-.22c.26-.85,2.69-1.14,4.58-.7,1,.23,3.63,1.06,4.58.7s.88-1,2-1.41,3,.33,4.58.71c2,.48,2.66.23,2.86.74A.62.62,0,0,1,31.45,16Z"/><path d="M22.6,23.23a6.88,6.88,0,0,1-2.89-.56,6.75,6.75,0,0,1-2.34-1.91l-.24-.27a28.28,28.28,0,0,0-3.38-3.19c-.8-.65-1.24-1-1.33-1.52a.82.82,0,0,1,0-.46c.4-1.29,3.28-1.47,5.17-1l.77.19c1,.27,2.91.76,3.53.53a1.7,1.7,0,0,0,.76-.56,2.93,2.93,0,0,1,1.2-.85c.94-.36,2.44,0,3.9.43l1,.26a17,17,0,0,0,1.78.32c.69.09,1.2.15,1.43.73a1.1,1.1,0,0,1,0,.85h0a11.25,11.25,0,0,1-2,2.74c-1.75,2.06-2.72,3.19-4.05,3.74a4.29,4.29,0,0,1-.5.19,8.41,8.41,0,0,1-2.58.37Zm-6.91-8.16c-1.27,0-2.22.31-2.29.55a5.14,5.14,0,0,0,.93.87,28.91,28.91,0,0,1,3.54,3.33l.25.27a5.85,5.85,0,0,0,2,1.67,6.19,6.19,0,0,0,2.68.47,7.69,7.69,0,0,0,2.29-.32l.41-.16c1.07-.44,1.9-1.38,3.68-3.47A12.85,12.85,0,0,0,31,15.83a.58.58,0,0,0,0-.13,3.51,3.51,0,0,0-.62-.1,17.88,17.88,0,0,1-1.89-.34l-1-.26c-1.18-.32-2.64-.71-3.28-.46a1.82,1.82,0,0,0-.81.58,2.76,2.76,0,0,1-1.16.82c-.84.32-2.44,0-4.13-.49l-.74-.19A8,8,0,0,0,15.69,15.07Z"/><path class="cls-3" d="M12.31,13.72c-1.06-.18-1.94-3.54-.77-4.4a2.26,2.26,0,0,1,2.88.86C15.21,11.67,13.27,13.89,12.31,13.72Z"/><path d="M12.43,14.23a.65.65,0,0,1-.2,0h0c-.83-.14-1.37-1.23-1.6-2.21s-.23-2.46.62-3.08A2.17,2.17,0,0,1,13,8.65a2.75,2.75,0,0,1,1.84,1.29,2.82,2.82,0,0,1-.47,3A2.84,2.84,0,0,1,12.43,14.23Zm0-4.65a1,1,0,0,0-.55.14c-.36.26-.46,1.12-.24,2s.63,1.43.8,1.46h0c.17,0,.71-.25,1.18-.9a2,2,0,0,0,.4-1.92,1.77,1.77,0,0,0-1.18-.78A2,2,0,0,0,12.39,9.58Z"/><path class="cls-3" d="M32.33,12.6c-1,.28-3.26-2.39-2.56-3.67a2.25,2.25,0,0,1,3-.43C34.09,9.51,33.26,12.35,32.33,12.6Z"/><path d="M32.16,13.12a3.17,3.17,0,0,1-2.09-1.37c-.69-.88-1.24-2.14-.74-3.06a2.23,2.23,0,0,1,1.49-1A2.76,2.76,0,0,1,33,8.1,2.81,2.81,0,0,1,33.87,11c-.16.83-.63,1.88-1.41,2.09h0A1,1,0,0,1,32.16,13.12Zm-.65-4.49a2.42,2.42,0,0,0-.47,0,1.26,1.26,0,0,0-.83.49c-.22.39.06,1.21.65,2s1.16,1,1.33,1h0a2,2,0,0,0,.69-1.32,2,2,0,0,0-.45-1.9A1.55,1.55,0,0,0,31.51,8.63Z"/></g></g></svg>