<svg xmlns="http://www.w3.org/2000/svg" viewBox="0 0 56.59 27.69"><defs><style>.cls-1{fill:#bf5c81;}.cls-2{fill:#eaebf3;}</style></defs><title>mouth3</title><g id="Layer_2" data-name="Layer 2"><g id="Layer_1-2" data-name="Layer 1"><path class="cls-1" d="M52,16.3c-2.87-4.35-5.74-8.71-11-12a25.79,25.79,0,0,0-10-3.6,23.39,23.39,0,0,0-14,2.4A33,33,0,0,0,14.08,5a33.17,33.17,0,0,0-2.85,2.53,2.23,2.23,0,0,1,1.57-.36c1.66.34,2.12,3.25,1.38,3.88s-4-.77-3.88-2.22a1.23,1.23,0,0,1,.25-.65A31.55,31.55,0,0,0,3.8,16.3c-2.4,4.29-4,10-3,10.79.45.37,1.19-.46,5-3.6a73.47,73.47,0,0,1,8-6c2.59-1.61,3.89-2.42,5-2.4a5.06,5.06,0,0,1,3.55,1.8c-.79-1.81,1.64-4,2.76-3.73s2.08,4.31.63,5.14a2.32,2.32,0,0,1-1.89-.07,9.7,9.7,0,0,0,3,1.65,10,10,0,0,0,7,0c2.85-1.16,2.76-2.92,5-3.59,1.21-.36,2.76-.31,9,3.59,5.53,3.45,7.53,5.4,8,4.8C56.81,23.7,52.48,17.08,52,16.3ZM21,10.65c-1.37.44-5.15-3.14-4.4-5.89C17.1,3,19.29,2,20.56,2.78,22.65,4,22.57,10.15,21,10.65Zm7-3c-1.19.15-3.63-4.07-2.23-5.75a2.44,2.44,0,0,1,3-.43C30.46,2.72,29.19,7.52,28,7.67Zm5.47,11.21a2.55,2.55,0,0,1-3.23.81c-1.61-.93-1-4,0-4.42S34.08,17.45,33.45,18.88ZM35.63,6.72c-1.08,0-2.43-3.23-1.39-4.25a2.26,2.26,0,0,1,3,.44C38.21,4.28,36.6,6.75,35.63,6.72Zm5.35,5c-1-.57-.45-5.15,1.27-5.58a2.42,2.42,0,0,1,2.44,1.76C45.23,9.92,41.93,12.19,41,11.67Z"/><path d="M1,27.69a.8.8,0,0,1-.52-.22c-1.47-1.19.73-7.56,2.89-11.42A31.76,31.76,0,0,1,10.21,7.8l.68-.63h0L11,7c.54-.52,1.13-1.09,1.83-1.69l1-.92-.19.27.13-.1a31,31,0,0,1,2.81-1.91A23.88,23.88,0,0,1,31,.21,26.51,26.51,0,0,1,41.2,3.88c5.38,3.33,8.32,7.8,11.17,12.11l0,0L52,16.3,52.4,16c5,7.71,4.26,8.63,4,9-.61.72-1.48.12-3.82-1.49-1.17-.81-2.78-1.91-4.86-3.21-6.13-3.81-7.58-3.85-8.62-3.53a4.12,4.12,0,0,0-2,1.43,7.45,7.45,0,0,1-2.95,2.14,10.36,10.36,0,0,1-7.38,0,10.06,10.06,0,0,1-2.95-1.6l.07.15-.73-.67-2.2-1.78.49.2a3.83,3.83,0,0,0-2.55-1.06c-1,0-2.23.76-4.73,2.31a73.07,73.07,0,0,0-8,6c-.84.69-1.53,1.27-2.1,1.75C2.3,27.06,1.55,27.69,1,27.69ZM9.91,9.46a28.63,28.63,0,0,0-5.67,7.08C1.67,21.13.59,25.92,1.07,26.65a18.82,18.82,0,0,0,2.31-1.8L5.49,23.1a73.84,73.84,0,0,1,8.08-6c2.68-1.66,4.05-2.46,5.29-2.47a4.67,4.67,0,0,1,2.93,1.09,3.72,3.72,0,0,1,.91-1.8c.68-.77,1.75-1.45,2.6-1.2s1.55,1.7,1.72,3-.19,2.59-1,3a1.39,1.39,0,0,1-.28.12,8.78,8.78,0,0,0,1.29.55,10.44,10.44,0,0,0,2.75.6,3,3,0,0,1-1.06-2.79,2.82,2.82,0,0,1,1.31-2.42c.88-.34,2.08.47,2.83,1.27,1,1.06,1.39,2.18,1,3a1.41,1.41,0,0,1-.21.35h0a6.38,6.38,0,0,0,2.59-1.89,5.15,5.15,0,0,1,2.48-1.71c1.33-.4,2.95-.39,9.44,3.64,2.1,1.32,3.71,2.42,4.89,3.23a18,18,0,0,0,2.5,1.58c0-.62-1-3.05-4-7.69L52,16.3l-.41.27,0,0a48.86,48.86,0,0,0-6.29-8.19,4.2,4.2,0,0,1-1.77,3c-.8.62-2,1.2-2.74.8h0c-1-.53-.78-2.4-.71-3,.18-1.39.81-3.12,2-3.51-.44-.31-.89-.61-1.36-.9a25.52,25.52,0,0,0-2.73-1.46,3.27,3.27,0,0,1-.36,2.35c-.4.75-1.16,1.61-2,1.6h0c-.84,0-1.54-1-1.9-2s-.58-2.4.17-3.14a1.93,1.93,0,0,1,.28-.22,24.15,24.15,0,0,0-3.34-.69c-.64-.08-1.27-.14-1.89-.17l.07.05c1.23.87,1.22,3,.83,4.5-.14.57-.7,2.45-1.8,2.58-.87.12-1.8-1-2.37-2-.78-1.43-1.27-3.37-.3-4.53A2.51,2.51,0,0,1,26,1.05a24,24,0,0,0-5.7,1.08,2.16,2.16,0,0,1,.49.22c1.5.89,2,3.76,1.78,6-.1.89-.42,2.44-1.42,2.76h0c-1.11.36-2.56-.92-3-1.32-1.27-1.21-2.57-3.3-2.06-5.17A2.7,2.7,0,0,1,16.41,4c-1.07.68-2,1.41-2,1.41-.57.44-1.07.87-1.52,1.28h0a2.82,2.82,0,0,1,2,2.24,2.65,2.65,0,0,1-.38,2.51c-.64.54-1.84.26-2.74-.19A3.82,3.82,0,0,1,9.91,9.46ZM30.5,15.72h-.1a2.11,2.11,0,0,0-.66,1.57c0,.34-.06,1.5.73,1.95a2.11,2.11,0,0,0,1.65.07,1.4,1.4,0,0,0,.87-.64h0c.18-.42-.17-1.21-.84-1.93A3,3,0,0,0,30.5,15.72Zm-7.34,1.67.93.38a1.88,1.88,0,0,0,1.47.1c.39-.23.59-1.06.46-2.05-.14-1.16-.64-2.07-1-2.17a2.12,2.12,0,0,0-1.58.9,2.22,2.22,0,0,0-.59,2.15Zm18.06-6.16c.13.07.82-.05,1.68-.74S44.44,8.88,44.21,8,43,6.42,42.37,6.57,41.23,7.81,41,9.17,41.09,11.15,41.22,11.23ZM11.41,7.82,11,8.46a.76.76,0,0,0-.16.38c0,.45.57,1.07,1.42,1.49a2.18,2.18,0,0,0,1.64.33,2,2,0,0,0,.06-1.5c-.16-.64-.57-1.38-1.22-1.51a1.74,1.74,0,0,0-1.2.29ZM19.57,3a2.29,2.29,0,0,0-.86.18,2.65,2.65,0,0,0-1.6,1.69c-.38,1.36.62,3.08,1.78,4.19.93.89,1.72,1.17,2,1.09s.59-.64.74-1.92c.21-1.93-.22-4.4-1.3-5A1.38,1.38,0,0,0,19.57,3Zm8.35,4.15.06.5-.06-.5c.16,0,.69-.66,1-2s.25-2.77-.48-3.28a1.93,1.93,0,0,0-2.29.34c-.58.69-.26,2.13.32,3.25S27.76,7.16,27.92,7.17Zm7.46-4.58a1.18,1.18,0,0,0-.79.23c-.31.31-.29,1.18.06,2.06s.82,1.33,1,1.34h0c.14,0,.66-.35,1-1.06a2,2,0,0,0,.12-2,1.8,1.8,0,0,0-1.28-.61Z"/><path d="M13.56,11.72a4.33,4.33,0,0,1-1.79-.49c-1-.5-2-1.4-2-2.44a1.67,1.67,0,0,1,.35-.91l.07-.09.27-.26.39-.37L11,7.1a2.68,2.68,0,0,1,1.94-.43,2.82,2.82,0,0,1,2,2.24,2.65,2.65,0,0,1-.38,2.51h0A1.44,1.44,0,0,1,13.56,11.72Zm-2-3.81-.39.36-.23.23a.71.71,0,0,0-.13.34c0,.45.57,1.07,1.42,1.49a2.18,2.18,0,0,0,1.64.33h0a2,2,0,0,0,.06-1.5c-.16-.64-.57-1.38-1.22-1.51A1.68,1.68,0,0,0,11.55,7.91Z"/><path d="M20.76,11.19A4.61,4.61,0,0,1,18.2,9.8c-1.27-1.21-2.57-3.3-2.06-5.17a3.73,3.73,0,0,1,2.19-2.36,2.8,2.8,0,0,1,2.49.08c1.5.89,2,3.76,1.78,6-.1.89-.42,2.44-1.42,2.76h0A1.23,1.23,0,0,1,20.76,11.19ZM19.57,3a2.29,2.29,0,0,0-.86.18,2.65,2.65,0,0,0-1.6,1.69c-.38,1.36.62,3.08,1.78,4.19.93.89,1.72,1.17,2,1.09s.59-.64.74-1.92c.21-1.93-.22-4.4-1.3-5A1.38,1.38,0,0,0,19.57,3Z"/><path d="M25,19a3.61,3.61,0,0,1-1.25-.25h-.07l-.14-.11c-.47-.38-.87-.76-1.26-1.12L22,17.1a3,3,0,0,1,.75-3.21c.68-.77,1.75-1.45,2.6-1.2s1.55,1.7,1.72,3-.19,2.59-1,3h0A2.14,2.14,0,0,1,25,19Zm-.85-1.17a1.83,1.83,0,0,0,1.37.06c.41-.24.6-1.06.47-2.05-.14-1.16-.64-2.07-1-2.17a2.12,2.12,0,0,0-1.58.9,2.29,2.29,0,0,0-.62,2.06l.17.16c.33.31.67.63,1.06,1h0Z"/><path d="M27.92,8.17c-.83,0-1.7-1-2.25-2-.78-1.43-1.27-3.37-.3-4.53A2.9,2.9,0,0,1,29,1.08c1.23.87,1.22,3,.83,4.5-.14.57-.7,2.45-1.79,2.58h-.13Zm0-1,.06.5-.06-.5c.16,0,.69-.66,1-2s.25-2.77-.48-3.28a1.93,1.93,0,0,0-2.29.34c-.58.69-.26,2.13.32,3.25S27.76,7.16,27.92,7.17Z"/><path d="M31.33,20.45A2.7,2.7,0,0,1,30,20.12a2.94,2.94,0,0,1-1.24-2.9,2.82,2.82,0,0,1,1.31-2.42c.88-.34,2.08.47,2.83,1.27,1,1.06,1.39,2.18,1,3a2.35,2.35,0,0,1-1.47,1.19A3.63,3.63,0,0,1,31.33,20.45Zm-.83-4.73h-.1a2.11,2.11,0,0,0-.66,1.57c0,.34-.06,1.5.73,1.95a2.11,2.11,0,0,0,1.65.07,1.4,1.4,0,0,0,.87-.64h0c.18-.42-.17-1.21-.84-1.93A3,3,0,0,0,30.5,15.72Z"/><path d="M35.65,7.22h0c-.84,0-1.54-1-1.9-2s-.58-2.4.17-3.14a2.19,2.19,0,0,1,1.72-.51,2.73,2.73,0,0,1,2,1,2.83,2.83,0,0,1,0,3C37.19,6.36,36.45,7.22,35.65,7.22Zm-.27-4.63a1.18,1.18,0,0,0-.79.23c-.31.31-.29,1.18.06,2.06s.82,1.33,1,1.34h0c.14,0,.66-.35,1-1.06a2,2,0,0,0,.12-2,1.8,1.8,0,0,0-1.28-.61Z"/><path d="M41.32,12.24a1.27,1.27,0,0,1-.58-.13h0c-1-.53-.78-2.4-.71-3,.18-1.43.84-3.22,2.1-3.54a2.89,2.89,0,0,1,3,2.12c.36,1.39-.64,2.76-1.7,3.59A4,4,0,0,1,41.32,12.24Zm-.1-1c.13.07.82-.05,1.68-.74S44.44,8.88,44.21,8,43,6.42,42.37,6.57,41.23,7.81,41,9.17,41.09,11.15,41.22,11.23Z"/><path class="cls-2" d="M14.18,11c-.82.7-4-.77-3.88-2.22a1.23,1.23,0,0,1,.25-.65,2.36,2.36,0,0,1,.68-.65,2.23,2.23,0,0,1,1.57-.36C14.46,7.5,14.92,10.41,14.18,11Z"/><path d="M13.56,11.72a4.33,4.33,0,0,1-1.79-.49c-1-.5-2-1.4-2-2.44a1.67,1.67,0,0,1,.35-.91A2.63,2.63,0,0,1,11,7.1a2.68,2.68,0,0,1,1.94-.43,2.82,2.82,0,0,1,2,2.24,2.65,2.65,0,0,1-.38,2.51h0A1.44,1.44,0,0,1,13.56,11.72ZM12.48,7.63a1.91,1.91,0,0,0-1,.31,1.83,1.83,0,0,0-.53.5.82.82,0,0,0-.17.4c0,.45.57,1.07,1.42,1.49a2.18,2.18,0,0,0,1.64.33h0a2,2,0,0,0,.06-1.5c-.16-.64-.57-1.38-1.22-1.51A.78.78,0,0,0,12.48,7.63Z"/><path class="cls-2" d="M21,10.65c-1.37.44-5.15-3.14-4.4-5.89C17.1,3,19.29,2,20.56,2.78,22.65,4,22.57,10.15,21,10.65Z"/><path d="M20.76,11.19A4.61,4.61,0,0,1,18.2,9.8c-1.27-1.21-2.57-3.3-2.06-5.17a3.73,3.73,0,0,1,2.19-2.36,2.8,2.8,0,0,1,2.49.08c1.5.89,2,3.76,1.78,6-.1.89-.42,2.44-1.42,2.76h0A1.23,1.23,0,0,1,20.76,11.19ZM19.57,3a2.29,2.29,0,0,0-.86.18,2.65,2.65,0,0,0-1.6,1.69c-.38,1.36.62,3.08,1.78,4.19.93.89,1.72,1.17,2,1.09s.59-.64.74-1.92c.21-1.93-.22-4.4-1.3-5A1.38,1.38,0,0,0,19.57,3Z"/><path class="cls-2" d="M28,7.67c-1.19.15-3.63-4.07-2.23-5.75a2.44,2.44,0,0,1,3-.43C30.46,2.72,29.19,7.52,28,7.67Z"/><path d="M27.92,8.17c-.83,0-1.7-1-2.25-2-.78-1.43-1.27-3.37-.3-4.53A2.9,2.9,0,0,1,29,1.08c1.23.87,1.22,3,.83,4.5-.14.57-.7,2.45-1.79,2.58h-.13Zm0-1,.06.5-.06-.5c.16,0,.69-.66,1-2s.25-2.77-.48-3.28a1.93,1.93,0,0,0-2.29.34c-.58.69-.26,2.13.32,3.25S27.76,7.16,27.92,7.17Z"/><path class="cls-2" d="M35.63,6.72c-1.08,0-2.43-3.23-1.39-4.25a2.26,2.26,0,0,1,3,.44C38.21,4.28,36.6,6.75,35.63,6.72Z"/><path d="M35.65,7.22h0c-.84,0-1.54-1-1.9-2s-.58-2.4.17-3.14a2.19,2.19,0,0,1,1.72-.51,2.73,2.73,0,0,1,2,1,2.83,2.83,0,0,1,0,3C37.19,6.36,36.45,7.22,35.65,7.22Zm-.27-4.63a1.18,1.18,0,0,0-.79.23c-.31.31-.29,1.18.06,2.06s.82,1.33,1,1.34h0c.14,0,.66-.35,1-1.06a2,2,0,0,0,.12-2,1.8,1.8,0,0,0-1.28-.61Z"/><path class="cls-2" d="M41,11.67c-1-.57-.45-5.15,1.27-5.58a2.42,2.42,0,0,1,2.44,1.76C45.23,9.92,41.93,12.19,41,11.67Z"/><path d="M41.32,12.24a1.27,1.27,0,0,1-.58-.13h0c-1-.53-.78-2.4-.71-3,.18-1.43.84-3.22,2.1-3.54a2.89,2.89,0,0,1,3,2.12c.36,1.39-.64,2.76-1.7,3.59A4,4,0,0,1,41.32,12.24Zm-.1-1c.13.07.82-.05,1.68-.74S44.44,8.88,44.21,8,43,6.42,42.37,6.57,41.23,7.81,41,9.17,41.09,11.15,41.22,11.23Z"/><path class="cls-2" d="M25.79,18.31a2.32,2.32,0,0,1-1.89-.07h0a2.81,2.81,0,0,1-1.46-1.29s0,0,0,0c-.79-1.81,1.64-4,2.76-3.73S27.24,17.48,25.79,18.31Z"/><path d="M25,19a3.6,3.6,0,0,1-1.32-.28l-.1,0A3.36,3.36,0,0,1,22,17.23L22,17.1a3,3,0,0,1,.75-3.21c.68-.77,1.75-1.45,2.6-1.2s1.55,1.7,1.72,3-.19,2.59-1,3h0A2.14,2.14,0,0,1,25,19Zm-.85-1.17a1.83,1.83,0,0,0,1.37.06c.41-.24.6-1.06.47-2.05-.14-1.16-.64-2.07-1-2.17a2.12,2.12,0,0,0-1.58.9,2.3,2.3,0,0,0-.62,2.07l0,.1a2.33,2.33,0,0,0,1.12,1h.1Z"/><path class="cls-2" d="M33.45,18.88a2.55,2.55,0,0,1-3.23.81c-1.61-.93-1-4,0-4.42S34.08,17.45,33.45,18.88Z"/><path d="M31.33,20.45A2.7,2.7,0,0,1,30,20.12a2.94,2.94,0,0,1-1.24-2.9,2.82,2.82,0,0,1,1.31-2.42c.88-.34,2.08.47,2.83,1.27,1,1.06,1.39,2.18,1,3a2.35,2.35,0,0,1-1.47,1.19A3.63,3.63,0,0,1,31.33,20.45Zm-.83-4.73h-.1a2.11,2.11,0,0,0-.66,1.57c0,.34-.06,1.5.73,1.95a2.11,2.11,0,0,0,1.65.07,1.4,1.4,0,0,0,.87-.64h0c.18-.42-.17-1.21-.84-1.93A3,3,0,0,0,30.5,15.72Z"/></g></g></svg>