<svg xmlns="http://www.w3.org/2000/svg" viewBox="0 0 46.4 14.61"><defs><style>.cls-1{fill:#eaebf3;}</style></defs><title>mouth2</title><g id="Layer_2" data-name="Layer 2"><g id="Layer_1-2" data-name="Layer 1"><path d="M42.79,10.82A21.42,21.42,0,0,0,34,3a22.38,22.38,0,0,0-7.82-1.95c-3-.21-5.21.24-8.86,1-3.41.69-5.12,1-6.87,2a17.05,17.05,0,0,0-6.8,6.81l-.87-.5A18,18,0,0,1,10,3.11c1.87-1,3.63-1.34,7.13-2s6-1.22,9.13-1A23.51,23.51,0,0,1,34.42,2.1a22.35,22.35,0,0,1,9.21,8.18Z"/><path d="M4.71,13.58A3.1,3.1,0,0,0,3,11,3.17,3.17,0,0,0,.42,11L0,10.09a4.18,4.18,0,0,1,3.42,0,4.11,4.11,0,0,1,2.29,3.41Z"/><path d="M40.71,14.61A4.33,4.33,0,0,1,43,10.1a4.26,4.26,0,0,1,3.41,0L46,11a3.24,3.24,0,0,0-2.59,0,3.35,3.35,0,0,0-1.72,3.49Z"/><path class="cls-1" d="M30.76,6.58c-1.08-.09-2.27-3.35-1.18-4.32a2.25,2.25,0,0,1,2.94.59C33.46,4.26,31.72,6.66,30.76,6.58Z"/><path d="M30.81,7.08h-.09C29.87,7,29.23,6,28.91,5s-.45-2.42.34-3.11A2.17,2.17,0,0,1,31,1.46a2.72,2.72,0,0,1,1.95,1.11,2.83,2.83,0,0,1-.18,3C32.34,6.28,31.59,7.08,30.81,7.08ZM30.6,2.43a1.05,1.05,0,0,0-.69.2,2.17,2.17,0,0,0-.05,2.05c.31,1,.77,1.39.94,1.4h0c.18,0,.68-.31,1.09-1a1.94,1.94,0,0,0,.21-1.94,1.8,1.8,0,0,0-1.25-.68Z"/><path class="cls-1" d="M13.53,7.47c-1,.28-3.25-2.4-2.55-3.67a2.25,2.25,0,0,1,3-.43C15.3,4.39,14.47,7.22,13.53,7.47Z"/><path d="M13.37,8a3.17,3.17,0,0,1-2.1-1.38c-.68-.87-1.24-2.13-.73-3.05a2.19,2.19,0,0,1,1.5-1,2.73,2.73,0,0,1,2.21.4,2.83,2.83,0,0,1,.83,2.89c-.17.84-.64,1.88-1.42,2.09A1,1,0,0,1,13.37,8ZM12.71,3.5a2.4,2.4,0,0,0-.46,0,1.24,1.24,0,0,0-.83.49c-.22.39.05,1.21.64,2s1.17,1,1.34,1h0a2,2,0,0,0,.69-1.32,2,2,0,0,0-.44-1.9A1.58,1.58,0,0,0,12.71,3.5Z"/></g></g></svg>