<svg xmlns="http://www.w3.org/2000/svg" viewBox="0 0 23.16 17.64"><defs><style>.cls-1{fill:#ff7bac;}</style></defs><title>nose1</title><g id="Layer_2" data-name="Layer 2"><g id="Layer_1-2" data-name="Layer 1"><path d="M22.3,3A6.05,6.05,0,0,0,18.67.09a3.58,3.58,0,0,0-2.86.62,7.78,7.78,0,0,1-3,1.08,9.21,9.21,0,0,1-4.13-.47,6.34,6.34,0,0,0-4.54-.07A6.44,6.44,0,0,0,1,3.71C.19,5-.47,7.15.45,8.77c.28.5.71.91,4.22,2.48.78.35,1.36.59,1.79.78,1.08.45,1.2.51,1.47.8a3.27,3.27,0,0,1,.8,1.95,3,3,0,0,0,1,2.07,3.9,3.9,0,0,0,2.49.79,5.27,5.27,0,0,0,.68,0,3.87,3.87,0,0,0,2.69-1.42,2.94,2.94,0,0,0,.35-2.25,2.19,2.19,0,0,1,.22-1.72c.29-.42.61-.52,1.24-.72a9.43,9.43,0,0,0,2-.83c1-.56,3.11-1.73,3.66-3.71A5.26,5.26,0,0,0,22.3,3Zm-.23,3.72c-.44,1.57-2.29,2.6-3.18,3.1a9.19,9.19,0,0,1-1.83.75,2.85,2.85,0,0,0-1.76,1.1,3.12,3.12,0,0,0-.39,2.42,2,2,0,0,1-.18,1.55,2.88,2.88,0,0,1-2,1,3.18,3.18,0,0,1-2.4-.52,2,2,0,0,1-.61-1.45,4.28,4.28,0,0,0-1.06-2.48,4.21,4.21,0,0,0-1.8-1c-.44-.19-1-.43-1.78-.78C1.88,8.91,1.46,8.52,1.32,8.27c-.75-1.31,0-3.14.56-4A5.43,5.43,0,0,1,4.49,2.18a4.35,4.35,0,0,1,1.64-.33,8,8,0,0,1,2.25.44,11.45,11.45,0,0,0,3.32.57,8.8,8.8,0,0,0,1.22-.08,8.49,8.49,0,0,0,3.38-1.2,2.56,2.56,0,0,1,2.14-.51,5.05,5.05,0,0,1,3,2.42A4.26,4.26,0,0,1,22.07,6.69Z"/><path class="cls-1" d="M22.07,6.69c-.44,1.57-2.29,2.6-3.18,3.1a9.19,9.19,0,0,1-1.83.75,2.85,2.85,0,0,0-1.76,1.1,3.12,3.12,0,0,0-.39,2.42,2,2,0,0,1-.18,1.55,2.88,2.88,0,0,1-2,1,3.18,3.18,0,0,1-2.4-.52,2,2,0,0,1-.61-1.45,4.28,4.28,0,0,0-1.06-2.48,4.21,4.21,0,0,0-1.8-1c-.44-.19-1-.43-1.78-.78C1.88,8.91,1.46,8.52,1.32,8.27c-.75-1.31,0-3.14.56-4A5.43,5.43,0,0,1,4.49,2.18a4.35,4.35,0,0,1,1.64-.33,8,8,0,0,1,2.25.44,11.45,11.45,0,0,0,3.32.57,8.8,8.8,0,0,0,1.22-.08,8.49,8.49,0,0,0,3.38-1.2,2.56,2.56,0,0,1,2.14-.51,5.05,5.05,0,0,1,3,2.42A4.26,4.26,0,0,1,22.07,6.69Z"/><path d="M7.81,7a1.5,1.5,0,0,0,0-3,1.5,1.5,0,0,0,0,3Z"/><path d="M12,8.15a1.5,1.5,0,0,0,0-3,1.5,1.5,0,0,0,0,3Z"/><path d="M15.7,6.38a1.5,1.5,0,0,0,0-3,1.5,1.5,0,0,0,0,3Z"/></g></g></svg>