<svg xmlns="http://www.w3.org/2000/svg" viewBox="0 0 22 19.92"><defs><style>.cls-1{fill:#d18fa8;}.cls-2{fill:#e0b4c5;}</style></defs><title>nose2</title><g id="Layer_2" data-name="Layer 2"><g id="Layer_1-2" data-name="Layer 1"><path d="M20.39,6.08C19.21,4,17.44.77,13.65.12A7.34,7.34,0,0,0,12.34,0c-3,0-5.65,1.87-8.18,3.68C2.1,5.16,0,6.68,0,9.07A4.59,4.59,0,0,0,2.4,13a5.51,5.51,0,0,0,3,.44,2.52,2.52,0,0,1,1.77.25c.39.31.37.68.29,1.43A3.52,3.52,0,0,0,8,17.81a6.17,6.17,0,0,0,4,2.05,7.37,7.37,0,0,0,.9.06,3.16,3.16,0,0,0,1.91-.52c1-.74.6-1.94.3-3s-.52-2,0-2.51,1.59-.52,2.67-.49,2.5.08,3.4-.75C23.09,10.94,21.13,7.41,20.39,6.08Zm-6,7.1c-1,1-.64,2.39-.31,3.51s.43,1.62,0,1.92a3,3,0,0,1-2.05.26A5.28,5.28,0,0,1,8.8,17.22a2.55,2.55,0,0,1-.33-2A2.29,2.29,0,0,0,7.8,12.9a2.19,2.19,0,0,0-.63-.35A3.19,3.19,0,0,0,6.1,12.4l-.75,0a6.49,6.49,0,0,1-1.46,0,2.17,2.17,0,0,1-.43-.08,3.69,3.69,0,0,1-.6-.23,3.11,3.11,0,0,1-.77-.56A3.67,3.67,0,0,1,1,9.05C1,7.19,2.89,5.82,4.74,4.5c2.72-1.95,5.52-4,8.74-3.4s4.95,3.52,6,5.47a17,17,0,0,1,.88,1.74,4.89,4.89,0,0,1,.53,2.92.92.92,0,0,1-.13.36,1.06,1.06,0,0,1-.26.34,4,4,0,0,1-2.7.48h-.15A4.21,4.21,0,0,0,14.44,13.18Z"/><path class="cls-1" d="M7.11,11.37a2.49,2.49,0,0,1-2,1H3.89a2.17,2.17,0,0,1-.43-.08,2.43,2.43,0,0,1,.14-2.19,2,2,0,0,1,.86-.61,2.88,2.88,0,0,1,2.05,0,1.4,1.4,0,0,1,.72.83A1.33,1.33,0,0,1,7.11,11.37Z"/><path class="cls-2" d="M16.71,11a3,3,0,0,0,1,1.44,4.21,4.21,0,0,0-3.24.77c-1,1-.64,2.39-.31,3.51s.43,1.62,0,1.92a3,3,0,0,1-2.05.26A5.28,5.28,0,0,1,8.8,17.22a2.55,2.55,0,0,1-.33-2A2.29,2.29,0,0,0,7.8,12.9a2.19,2.19,0,0,0-.63-.35A1.59,1.59,0,0,0,8,11.87a2.53,2.53,0,0,0,.2-1.82A2.32,2.32,0,0,0,7,8.62a3.86,3.86,0,0,0-2.86,0,3.17,3.17,0,0,0-2,2.94A3.67,3.67,0,0,1,1,9.05C1,7.19,2.89,5.82,4.74,4.5c2.72-1.95,5.52-4,8.74-3.4s4.95,3.52,6,5.47a17,17,0,0,1,.88,1.74A2.64,2.64,0,0,0,17.54,8,2.62,2.62,0,0,0,16.71,11Z"/><path d="M8,11.87a1.59,1.59,0,0,1-.81.68,4.85,4.85,0,0,1-3.67-.13H5.07a2.49,2.49,0,0,0,2-1,1.33,1.33,0,0,0,.12-1,1.4,1.4,0,0,0-.72-.83,2.88,2.88,0,0,0-2,0,2,2,0,0,0-.86.61,2.43,2.43,0,0,0-.14,2.19l0,.09-1.35-.06a2.86,2.86,0,0,1-.06-.82,3.17,3.17,0,0,1,2-2.94A3.86,3.86,0,0,1,7,8.62a2.32,2.32,0,0,1,1.23,1.43A2.53,2.53,0,0,1,8,11.87Z"/><path d="M21.14,11.52a2.64,2.64,0,0,0,.1-2.18,2.38,2.38,0,0,0-.85-1A2.64,2.64,0,0,0,17.54,8,2.62,2.62,0,0,0,16.71,11a3,3,0,0,0,1,1.44,3.63,3.63,0,0,0,1.18.67l1.87-1.18c-.07.17-.15.34-.23.52a3.25,3.25,0,0,0,.54-.71l.46-.29Zm-.26.06h-.09c-1.52.29-2.75-.13-3.12-.9a1.54,1.54,0,0,1,.39-1.81c.61-.36,1.79.28,2.38,1.06a2.46,2.46,0,0,1,.48,1.29,1.83,1.83,0,0,1,0,.21Z"/><path class="cls-1" d="M20.92,11.23a.92.92,0,0,1-.13.36c-1.52.29-2.75-.13-3.12-.9a1.54,1.54,0,0,1,.39-1.81c.61-.36,1.79.28,2.38,1.06A2.46,2.46,0,0,1,20.92,11.23Z"/></g></g></svg>