<svg xmlns="http://www.w3.org/2000/svg" viewBox="0 0 19.78 18.5"><defs><style>.cls-1{fill:#a67c52;}</style></defs><title>nose3</title><g id="Layer_2" data-name="Layer 2"><g id="Layer_1-2" data-name="Layer 1"><path d="M19.76,8.45a5,5,0,0,0-2.24-3.7,2.52,2.52,0,0,0-1.26-.44A9,9,0,0,1,14.87,4,7.74,7.74,0,0,1,12,2.77a6.13,6.13,0,0,1-1.47-1.71C10.19.48,9.85,0,9.16,0s-1,.71-1.45,1.61a15.46,15.46,0,0,1-1.44,2.6A7.84,7.84,0,0,1,3.91,6.73a4.17,4.17,0,0,1-1.5.53,2.22,2.22,0,0,0-1.67,1A4.7,4.7,0,0,0,.16,12a3.56,3.56,0,0,0,1.78,2.32c1.23.6,2.37,0,3.48-.68a11.11,11.11,0,0,0,2.06-1.54,4.8,4.8,0,0,1,.46-.39,6.79,6.79,0,0,1-.23,2.7,4.55,4.55,0,0,1-1.34,2.4,2.53,2.53,0,0,1-1.57.53H4.65a.52.52,0,0,0-.48.53c0,.57,0,.57,3.08.51l1.95,0c2.31,0,3.7,0,4,0l.64.08a7.93,7.93,0,0,0,1,.1c.47,0,.81-.12.92-.54s-.2-.78-.58-1.16a7.58,7.58,0,0,1-1.47-1.88,13.53,13.53,0,0,1-1-2.58,14.35,14.35,0,0,1-.58-2.12,7.21,7.21,0,0,1,1.36.71,7.36,7.36,0,0,1,1.07.74,3.73,3.73,0,0,0,1,.62,2.81,2.81,0,0,0,3-.08A4.57,4.57,0,0,0,19.76,8.45Zm-1.83,3c-.56.47-1.27.23-2-.07a2.81,2.81,0,0,1-.76-.48A10.32,10.32,0,0,0,14,10.06c-1.19-.69-2.13-1.25-2.67-.53-.39.52-.15,1.28.43,3.11a14.34,14.34,0,0,0,1,2.76,8.78,8.78,0,0,0,1.6,2.07l-.44-.06-.66-.08c-.15,0-.49,0-1.08,0s-1.64,0-3,0l-2,0h0a5.63,5.63,0,0,0,1.45-2.73c.09-.32.79-3.13-.18-3.86-.58-.44-1.11,0-1.68.55a10.41,10.41,0,0,1-1.89,1.42c-1.11.63-1.84,1-2.55.65A2.62,2.62,0,0,1,1.13,11.7a3.7,3.7,0,0,1,.42-2.91A1.29,1.29,0,0,1,2.6,8.24a5.08,5.08,0,0,0,1.82-.65A8.73,8.73,0,0,0,7.09,4.78,16.09,16.09,0,0,0,8.62,2c.23-.5.46-1,.62-1a2.15,2.15,0,0,1,.47.59,6.83,6.83,0,0,0,1.7,2A8.65,8.65,0,0,0,14.59,5a9.74,9.74,0,0,0,1.54.32,1.53,1.53,0,0,1,.84.28,4,4,0,0,1,1.79,3A3.63,3.63,0,0,1,17.93,11.44Z"/><path class="cls-1" d="M17.93,11.44c-.56.47-1.27.23-2-.07a2.81,2.81,0,0,1-.76-.48A10.32,10.32,0,0,0,14,10.06c-1.19-.69-2.13-1.25-2.67-.53-.39.52-.15,1.28.43,3.11a14.34,14.34,0,0,0,1,2.76,8.78,8.78,0,0,0,1.6,2.07l-.44-.06-.66-.08c-.15,0-.49,0-1.08,0s-1.64,0-3,0l-2,0h0a5.63,5.63,0,0,0,1.45-2.73c.09-.32.79-3.13-.18-3.86-.58-.44-1.11,0-1.68.55a10.41,10.41,0,0,1-1.89,1.42c-1.11.63-1.84,1-2.55.65A2.62,2.62,0,0,1,1.13,11.7a3.7,3.7,0,0,1,.42-2.91A1.29,1.29,0,0,1,2.6,8.24a5.08,5.08,0,0,0,1.82-.65A8.73,8.73,0,0,0,7.09,4.78,16.09,16.09,0,0,0,8.62,2c.23-.5.46-1,.62-1a2.15,2.15,0,0,1,.47.59,6.83,6.83,0,0,0,1.7,2A8.65,8.65,0,0,0,14.59,5a9.74,9.74,0,0,0,1.54.32,1.53,1.53,0,0,1,.84.28,4,4,0,0,1,1.79,3A3.63,3.63,0,0,1,17.93,11.44Z"/><path d="M5.48,12.55a1.5,1.5,0,0,0,0-3,1.5,1.5,0,0,0,0,3Z"/><path d="M15.87,11.74a1.5,1.5,0,0,0,0-3,1.5,1.5,0,0,0,0,3Z"/></g></g></svg>