<svg xmlns="http://www.w3.org/2000/svg" viewBox="0 0 18.93 15.58"><defs><style>.cls-1{fill:#998675;}</style></defs><title>nose4</title><g id="Layer_2" data-name="Layer 2"><g id="Layer_1-2" data-name="Layer 1"><path d="M17.58,1.14A4.61,4.61,0,0,0,15.19,0a5.41,5.41,0,0,0-2.93.52,5.76,5.76,0,0,0-2.33,1.6,4.67,4.67,0,0,0-.69,1.21A5.64,5.64,0,0,0,8.6,2.19,4.75,4.75,0,0,0,6.81.57a5.21,5.21,0,0,0-4.12,0,4,4,0,0,0-2.4,1.7C-.14,3.06-.3,4.49,1.4,6.66A28.91,28.91,0,0,0,4.32,9.5,29.63,29.63,0,0,1,7.79,13l.61.84c.86,1.22,1.27,1.79,1.83,1.79a.62.62,0,0,0,.19,0c.58-.11.68-.68.78-1.22a6,6,0,0,1,.63-1.93,52.84,52.84,0,0,1,4.53-4.57l.17-.15C18.43,5.9,18.69,5.41,18.8,5A3.9,3.9,0,0,0,17.58,1.14Zm.26,3.62c0,.11-.13.44-2,2.2l-.16.15A40.47,40.47,0,0,0,11,11.93a7,7,0,0,0-.74,2.24,2.93,2.93,0,0,1-.05.29,14.32,14.32,0,0,1-.95-1.25l-.61-.85A29.05,29.05,0,0,0,5,8.76a27.75,27.75,0,0,1-2.8-2.71C.82,4.29.88,3.27,1.17,2.71A3.18,3.18,0,0,1,3,1.5a5.31,5.31,0,0,1,1.84-.35,3.42,3.42,0,0,1,1.5.32,3.76,3.76,0,0,1,1.41,1.3,5.12,5.12,0,0,1,.65,1.28c.16.41.33.86.83.87s.66-.47.79-.85a4,4,0,0,1,.66-1.28,4.56,4.56,0,0,1,1.94-1.3A4.28,4.28,0,0,1,15.05,1a3.55,3.55,0,0,1,1.87.84A2.92,2.92,0,0,1,17.84,4.76Z"/><path class="cls-1" d="M17.84,4.76c0,.11-.13.44-2,2.2l-.16.15A40.47,40.47,0,0,0,11,11.93a7,7,0,0,0-.74,2.24,2.93,2.93,0,0,1-.05.29,14.32,14.32,0,0,1-.95-1.25l-.61-.85A29.05,29.05,0,0,0,5,8.76a27.75,27.75,0,0,1-2.8-2.71C.82,4.29.88,3.27,1.17,2.71A3.18,3.18,0,0,1,3,1.5a5.31,5.31,0,0,1,1.84-.35,3.42,3.42,0,0,1,1.5.32,3.76,3.76,0,0,1,1.41,1.3,5.12,5.12,0,0,1,.65,1.28c.16.41.33.86.83.87s.66-.47.79-.85a4,4,0,0,1,.66-1.28,4.56,4.56,0,0,1,1.94-1.3A4.28,4.28,0,0,1,15.05,1a3.55,3.55,0,0,1,1.87.84A2.92,2.92,0,0,1,17.84,4.76Z"/><path d="M4.87,8.64a1.5,1.5,0,0,0,0-3,1.5,1.5,0,0,0,0,3Z"/><path d="M14.53,8.89a1.5,1.5,0,0,0,0-3,1.5,1.5,0,0,0,0,3Z"/><path d="M15.26,8.16a1.5,1.5,0,0,0,0-3,1.5,1.5,0,0,0,0,3Z"/><path d="M3.66,7.92a1.5,1.5,0,0,0,0-3,1.5,1.5,0,0,0,0,3Z"/></g></g></svg>