<svg xmlns="http://www.w3.org/2000/svg" xmlns:xlink="http://www.w3.org/1999/xlink" version="1.1" x="0px" y="0px" viewBox="0 0 100 100" enable-background="new 0 0 100 100" xml:space="preserve"><path fill="white" d="M61.167,67.751c0-4.188,1.728-7.966,4.501-10.685c-0.406-1.353-0.632-2.786-0.632-4.271c0-8.261,6.697-14.955,14.957-14.955  c1.376,0,2.701,0.201,3.968,0.548c-3.247-12.964-17.207-14.214-23.15-10.264c-3.783,2.515-6.353,3.409-8.243,3.721  c2.984-1.349,6.698-3.669,8.695-7.412c3.688-6.899,0.133-15.99,0.133-15.99s-5.212,1.154-9.423,4.545l1.938,6.779l-3.9-4.914  c-0.694,0.779-1.325,1.635-1.837,2.59c-0.754,1.416-1.196,2.925-1.435,4.428L44.907,9.165l-5.223,0.752c0,0,3.266,9.761,5.511,21.09  c-1.455-0.573-3.192-1.47-5.318-2.882C33.133,23.64,16.04,25.851,16.04,44.306c0,23.628,11.339,47.249,20.353,47.249  c5.232,0,8.429-3.56,13.954-3.56c5.521,0,8.721,3.56,13.954,3.56c3.418,0,7.173-3.405,10.514-8.917  C67.17,81.974,61.167,75.569,61.167,67.751z"/></svg>