<svg xmlns="http://www.w3.org/2000/svg" xmlns:xlink="http://www.w3.org/1999/xlink" xmlns:sketch="http://www.bohemiancoding.com/sketch/ns" viewBox="0 0 100 125" version="1.1" x="0px" y="0px"><title>heart6</title><desc>Created with Sketch.</desc><g stroke="none" stroke-width="1" fill="none" fill-rule="evenodd" sketch:type="MSPage"><path d="M68.7618359,10 C61.9380078,10 55.5226953,12.6571094 50.6978516,17.4826562 L49.6480859,18.5317187 L48.5990234,17.4826562 C43.7741797,12.6571094 37.3588672,10 30.5350391,10 C23.7112109,10 17.2958984,12.6571094 12.4703516,17.4826562 C2.50988281,27.443125 2.50988281,43.6508594 12.4703516,53.6113281 L49.6480859,90.7890625 L86.8258203,53.6113281 C96.7869922,43.6508594 96.7869922,27.443125 86.8258203,17.4826562 C82.0009766,12.6571094 75.5856641,10 68.7618359,10 L68.7618359,10 Z M65.1505859,51.70375 C61.9668359,56.9300781 56.2152734,60.4196875 49.6480859,60.4196875 C43.0808984,60.4196875 37.3293359,56.9300781 34.1455859,51.70375 L65.1505859,51.70375 L65.1505859,51.70375 Z M34.1350391,41.156875 C32.5333203,41.156875 31.2346484,39.8582031 31.2346484,38.2564844 C31.2346484,36.6547656 32.5333203,35.3560937 34.1350391,35.3560937 C35.7367578,35.3560937 37.0354297,36.6547656 37.0354297,38.2564844 C37.0354297,39.8582031 35.7367578,41.156875 34.1350391,41.156875 L34.1350391,41.156875 Z M62.2607422,38.2564844 C62.2607422,36.6547656 63.5594141,35.3560937 65.1611328,35.3560937 C66.7628516,35.3560937 68.0615234,36.6547656 68.0615234,38.2564844 C68.0615234,39.8582031 66.7628516,41.156875 65.1611328,41.156875 C63.5594141,41.156875 62.2607422,39.8582031 62.2607422,38.2564844 L62.2607422,38.2564844 Z" fill="#000000" sketch:type="MSShapeGroup"/></g><text x="0" y="115" fill="#000000" font-size="5px" font-weight="bold" font-family="'Helvetica Neue', Helvetica, Arial-Unicode, Arial, Sans-serif">Created by Marek Polakovic</text><text x="0" y="120" fill="#000000" font-size="5px" font-weight="bold" font-family="'Helvetica Neue', Helvetica, Arial-Unicode, Arial, Sans-serif">from the Noun Project</text></svg>