<svg xmlns="http://www.w3.org/2000/svg" viewBox="0 0 217.48 211.16"><title>pattern3</title><g id="Layer_2" data-name="Layer 2"><g id="Layer_1-2" data-name="Layer 1"><path d="M58.21,0c1.43.35.79,2.73,3,6,2.67,3.94,7,5.32,9,6a19,19,0,0,0,7,1c6.65-.3,10-4,11-3s-1.6,6.75-6,10a14.79,14.79,0,0,1-8,3c-1.86.1-2.8-.27-6-1-5.67-1.29-5.58-.81-11-2-7-1.52-10.47-2.27-11-4-.34-1.12.33-2,4-7C55.8,1.42,57-.27,58.21,0Z"/><path d="M171.21,6c-2-.07-3.29,2-8,4a38.76,38.76,0,0,1-6,2,20,20,0,0,1-6,1,15.89,15.89,0,0,1-5-1,16.6,16.6,0,0,1-4-2c-2.59-1.78-3-3.17-4-3-1.2.2-2.06,2.3-2,4,.06,1.47.8,2.58,2,4a27.44,27.44,0,0,0,8,7,27.61,27.61,0,0,0,8,3,24,24,0,0,0,11,0,18.66,18.66,0,0,0,7-3c2-1.46,4.39-3.15,5-6C178.18,11.54,174.4,6.16,171.21,6Z"/><path d="M7.21,96a39.76,39.76,0,0,0,6.08,8.4c1.09,1.14,1.62,1.4,3.94,3.74,2.87,2.88,3.92,4.36,7,6.86,4.89,4,8.41,6.88,14,9,3.49,1.33,6.31,2.4,10,2,6.46-.68,9.22-5.16,11-4,2.09,1.36.37,8.77-3,14a22.82,22.82,0,0,1-11,9c-4,1.48-7.12,1.31-13,1-4.39-.23-7.8-.4-12-2a47.2,47.2,0,0,1-11-6c-4-2.82-6-4.24-7-6-2.49-4.35-.56-8.67,2-20C5,108.43,6.17,102.94,7.21,96Z"/><path d="M211.21,106c-1.91-.14-4.75,7.13-9,18a20.85,20.85,0,0,1-5.16,8.2,21.07,21.07,0,0,1-3.84,2.8,27.24,27.24,0,0,1-8,3c-4.27,1-9.58,2.29-16,1-5.36-1.07-7.83-3.17-9-2-1.41,1.42.34,6.07,3,9a16.84,16.84,0,0,0,4,3,106,106,0,0,0,11,6c4.94,2.24,7.4,3.35,10,4,3.36.84,11.48,2.88,19-1a17.33,17.33,0,0,0,9-10c2.46-7.07.93-14.34-1-23h0C212.56,110.48,212.67,106.14,211.21,106Z"/><path d="M1.21,154c2.7-1.06,6,9.89,19,17a51.61,51.61,0,0,0,14,5c5.12,1.13,9,2,14,1,1.4-.27,4.6-1.51,11-4,5.42-2.1,6.36-2.62,7-3,5.4-3.19,6.62-6.49,8-6,2.06.74,1.22,8.72,0,14-.93,4.06-2.07,9-6,14-4.31,5.51-9.45,7.89-14,10a36.7,36.7,0,0,1-14,4c-9.46.54-17-3.62-20.4-5.89h0a13.63,13.63,0,0,0-5.66-2c-.34,0-.62-.07-.78-.09h-.16c-5.43-.37-10-21-10-21C1.14,167.69-1.63,155.16,1.21,154Z"/><path d="M216.21,170c-1.71-.75-3.93,5.49-12,10a35.55,35.55,0,0,1-13,4,43.36,43.36,0,0,1-16,0c-3.72-.75-10.35-2.1-16-7a45.33,45.33,0,0,0-8-6c-2.81-1.62-4.88-2.75-6-2-2.05,1.39.35,8.27,2,13,2,5.68,4,11.24,9,17a30,30,0,0,0,8,7c3.74,2.16,7.49,2.77,15,4,5.46.9,8.6,1.39,13,1a32,32,0,0,0,9-2,21.8,21.8,0,0,0,7-4c3.38-3.15,3.84-7.07,5-14C215.86,175.34,217.7,170.69,216.21,170Z"/></g></g></svg>