<svg xmlns="http://www.w3.org/2000/svg" viewBox="0 0 199.54 46.85"><title>pattern1</title><g id="Layer_2" data-name="Layer 2"><g id="Layer_1-2" data-name="Layer 1"><path d="M37.25,11.85c-7.25-1.46-9-2-9-2a37.4,37.4,0,0,1-7.09-3A37.23,37.23,0,0,1,13,.71L13.7,0a36.69,36.69,0,0,0,7.89,5.92,37.07,37.07,0,0,0,6.91,3s1.78.54,9,2Z"/><path d="M30.25,27.85c-7.25-1.46-9-2-9-2a37.4,37.4,0,0,1-7.09-3A37.23,37.23,0,0,1,6,16.71L6.7,16a36.69,36.69,0,0,0,7.89,5.92,37.07,37.07,0,0,0,6.91,3s1.78.54,9,2Z"/><path d="M24.25,46.85c-7.25-1.46-9-2-9-2a37.4,37.4,0,0,1-7.09-3A37.23,37.23,0,0,1,0,35.71L.7,35a36.69,36.69,0,0,0,7.89,5.92,37.07,37.07,0,0,0,6.91,3s1.78.54,9,2Z"/><path d="M169.4,13.94c-1,0-2.05,0-3.08-.08l.06-1a55.58,55.58,0,0,0,13.87-1,55.41,55.41,0,0,0,9.91-3l.38.93a56.59,56.59,0,0,1-10.09,3A56.87,56.87,0,0,1,169.4,13.94Z"/><path d="M174.4,30.94c-1,0-2.05,0-3.08-.08l.06-1a55.58,55.58,0,0,0,13.87-1,55.41,55.41,0,0,0,9.91-3l.38.93a56.59,56.59,0,0,1-10.09,3A56.87,56.87,0,0,1,174.4,30.94Z"/><path d="M178.4,42.94c-1,0-2.05,0-3.08-.08l.06-1a55.58,55.58,0,0,0,13.87-1,55.41,55.41,0,0,0,9.91-3l.38.93a56.59,56.59,0,0,1-10.09,3A56.87,56.87,0,0,1,178.4,42.94Z"/></g></g></svg>